<svg width="20" height="20" viewBox="0 0 20 20" fill="none" xmlns="http://www.w3.org/2000/svg">
<path d="M18.3333 5.55556C18.3333 6.12412 18.2113 6.66418 17.9921 7.15099C19.1894 7.8139 20 9.09006 20 10.5556C20 11.9012 19.3165 13.0873 18.2777 13.7855C18.3143 13.9997 18.3333 14.2198 18.3333 14.4444C18.3333 16.5922 16.5922 18.3333 14.4444 18.3333C14.0476 18.3333 13.6646 18.2739 13.3039 18.1634C12.6175 19.2661 11.3945 20 10 20C8.60554 20 7.38251 19.2661 6.69612 18.1634C6.33543 18.2739 5.95244 18.3333 5.55556 18.3333C3.40778 18.3333 1.66667 16.5922 1.66667 14.4444C1.66667 14.2198 1.68571 13.9997 1.72227 13.7855C0.683495 13.0873 0 11.9012 0 10.5556C0 9.09006 0.810626 7.81389 2.00795 7.15099C1.78868 6.66418 1.66667 6.12412 1.66667 5.55556C1.66667 3.40778 3.40778 1.66667 5.55556 1.66667C5.95243 1.66667 6.33542 1.72612 6.69611 1.8366C7.38251 0.73394 8.60554 0 10 0C11.3945 0 12.6175 0.733942 13.3039 1.83661C13.6646 1.72612 14.0476 1.66667 14.4444 1.66667C16.5922 1.66667 18.3333 3.40778 18.3333 5.55556Z" fill="white"/>
<path d="M6.66602 11.1114L8.88824 13.3337L13.3327 6.66699" stroke="#018294" stroke-width="1.5" stroke-linecap="round" stroke-linejoin="round"/>
</svg>
