<svg width="326" height="211" viewBox="0 0 326 211" fill="none" xmlns="http://www.w3.org/2000/svg">
<path d="M83.3544 182.82C82.186 182.732 81.0717 182.292 80.1591 181.558L74.3756 177.611C72.5705 176.534 71.035 175.058 69.8862 173.298C69.0065 171.522 68.5266 169.575 68.4802 167.594L66.0838 142.032C66.187 141.136 66.0028 140.231 65.5576 139.447C65.1125 138.663 64.4295 138.04 63.6074 137.67L63.2879 137.446C59.9695 135.152 57.1536 132.206 55.012 128.787C54.0151 127.327 53.3999 125.641 53.2227 123.882C53.2526 122.01 53.7233 120.171 54.5966 118.514C54.8043 118.035 55.012 117.572 55.2038 117.108C55.8065 115.341 56.2502 113.523 56.5298 111.676C56.8165 109.925 57.2221 108.196 57.744 106.5C58.9582 102.825 62.0737 98.5117 66.8347 98.5117C69.4053 98.7232 71.8589 99.678 73.8963 101.26C75.3164 102.342 76.9501 103.109 78.6892 103.512C79.22 103.567 79.7533 103.594 80.2869 103.592C81.0519 103.568 81.8173 103.622 82.5715 103.752C86.1662 104.423 88.2432 107.267 90.0805 109.791C90.7004 110.682 91.3725 111.536 92.0935 112.347C94.3271 114.73 97.4096 116.136 100.673 116.262C104.859 116.517 107.511 118.227 107.958 120.943C108.091 122.748 107.518 124.535 106.361 125.927C105.731 126.678 105.312 127.582 105.146 128.548C105.195 129.056 105.314 129.556 105.498 130.033C105.741 130.666 105.908 131.326 105.993 131.998C106.329 135.194 103.932 137.606 101.983 139.523C96.5118 145.318 91.8813 151.852 88.2272 158.935C87.1531 160.717 86.2696 162.607 85.5911 164.575C84.5751 167.911 84.7215 171.493 86.0065 174.736L86.2461 175.311C86.7278 176.316 87.0306 177.397 87.1408 178.506C87.2377 179.445 87.0055 180.389 86.4839 181.175C85.9623 181.962 85.1836 182.543 84.281 182.82C83.9742 182.87 83.6612 182.87 83.3544 182.82ZM66.8985 101.627C64.0228 101.627 61.7701 104.567 60.8115 107.459C60.3261 109.027 59.9576 110.629 59.7091 112.252C59.3995 114.292 58.8967 116.298 58.2073 118.243C58.0156 118.77 57.7919 119.281 57.5683 119.84C56.9085 121.052 56.5213 122.394 56.434 123.771C56.5917 124.986 57.0472 126.144 57.76 127.142C59.6621 130.19 62.1687 132.816 65.1252 134.858L65.4287 135.082C66.4931 135.701 67.4136 136.54 68.1287 137.542C68.8715 138.837 69.2729 140.3 69.295 141.792L71.6915 167.354C71.715 168.884 72.0579 170.391 72.698 171.78C73.6365 173.088 74.8464 174.178 76.2448 174.975L81.9964 178.969C82.2999 179.193 83.1147 179.768 83.4502 179.672C83.7857 179.577 83.8976 179.145 83.8816 178.634C83.7752 177.901 83.5541 177.189 83.2265 176.525L82.9549 175.902C81.389 171.978 81.2142 167.637 82.4597 163.6C83.1965 161.42 84.166 159.326 85.3514 157.353C89.1353 150.01 93.9445 143.243 99.6344 137.255C101.232 135.657 102.91 134.059 102.734 132.302C102.665 131.861 102.553 131.427 102.398 131.008C102.088 130.212 101.91 129.37 101.871 128.516C101.998 126.915 102.605 125.389 103.613 124.138C104.284 123.1 104.875 122.205 104.747 121.422C104.539 120.128 102.366 119.537 100.417 119.409C96.3389 119.249 92.49 117.479 89.713 114.488C88.9009 113.586 88.1433 112.637 87.4443 111.644C85.8467 109.408 84.249 107.299 81.9484 106.851C81.3718 106.769 80.7891 106.737 80.207 106.756C79.5556 106.756 78.9048 106.719 78.2578 106.644C76.0622 106.192 73.9941 105.259 72.2028 103.912C70.6831 102.669 68.8455 101.878 66.8985 101.627Z" fill="#DFEAEF"/>
<path d="M56.0144 103.783C53.8097 103.783 51.3812 101.85 49.6238 100.476C49.3203 100.237 49.0646 100.029 48.8569 99.8851C46.2616 98.0033 43.3265 96.6415 40.2136 95.875L39.6225 95.7312C38.402 95.5123 37.2221 95.1083 36.1237 94.533C34.7688 93.6073 33.6209 92.4105 32.7526 91.0182L24.3809 79.3393C20.275 73.6038 16.3927 66.8617 18.9489 60.4072C19.7744 58.5644 20.8496 56.8441 22.1442 55.2947C23.7419 53.1698 25.2596 51.1727 25.1957 48.9041C25.1479 48.2368 24.9663 47.5859 24.6616 46.9903C24.3569 46.3947 23.9355 45.8665 23.4223 45.4372C21.7355 44.007 19.5577 43.2906 17.3513 43.4401C13.3092 43.7916 9.60266 46.4437 6.32747 48.7763C5.89113 49.153 5.3832 49.4378 4.83414 49.6135C4.28507 49.7892 3.70618 49.8522 3.13217 49.7988C2.6203 49.6927 2.13838 49.4743 1.72118 49.1593C1.30399 48.8444 0.96193 48.4407 0.719713 47.9774C-0.877938 45.3094 0.224453 41.8425 3.62745 38.3915C6.5072 35.4955 9.60509 32.8249 12.8938 30.4033C15.728 28.1672 18.9904 26.536 22.4797 25.6103C25.3791 25.1397 28.3355 25.1397 31.2349 25.6103C35.7811 26.1406 40.2862 26.9786 44.719 28.1186L47.483 28.8695C50.5143 29.7956 53.62 30.4585 56.7653 30.8506C60.5849 31.3942 64.4722 30.5373 67.7092 28.4382L67.9968 28.2145C69.3229 27.2239 71.1122 25.8819 73.2371 26.6168C74.033 26.9769 74.7294 27.5252 75.2661 28.2145C76.1129 29.1252 78.3656 31.5855 77.3431 34.2696C76.7541 35.5453 75.7365 36.5742 74.4673 37.1773L67.6773 41.1235C66.5559 41.6069 65.6085 42.4206 64.9613 43.4561C64.8614 43.7389 64.8197 44.0389 64.839 44.3382C64.8582 44.6375 64.9378 44.9299 65.0731 45.1975C65.2658 45.6075 65.5391 45.9744 65.8767 46.2763C66.2144 46.5783 66.6094 46.8091 67.0382 46.9549C67.966 47.1613 68.9289 47.1504 69.8518 46.9232C70.7747 46.6959 71.6325 46.2584 72.3584 45.6449C73.8051 44.4709 75.1082 43.1302 76.2407 41.6507L77.0395 40.6762C79.1005 38.2318 81.465 37.4809 83.3502 38.5353C84.2114 39.1071 84.8796 39.9257 85.2674 40.8839C85.4227 41.2744 85.6504 41.6322 85.9384 41.9383C86.2739 42.178 86.9449 42.0342 87.9355 41.7945C89.0417 41.4538 90.2115 41.3719 91.3545 41.5549C94.3581 42.2419 95.7799 45.5011 95.1249 50.2781C95.0563 51.9672 94.4394 53.588 93.3675 54.8953C91.8414 56.2054 89.8626 56.865 87.8556 56.7326C86.7498 56.69 85.651 56.9262 84.6603 57.4196C83.93 58.0929 83.3806 58.9389 83.0627 59.8799C82.6689 60.7888 82.176 61.6515 81.5928 62.4522C79.897 64.2575 77.7262 65.5477 75.33 66.1747C73.269 66.9256 71.3359 67.6286 70.3933 69.1303C70.0331 69.7808 69.7541 70.4729 69.5625 71.1913C69.2429 72.461 68.6665 73.6518 67.869 74.6902C67.0712 75.5289 66.1366 76.2258 65.1051 76.7511C64.2842 77.0993 63.5644 77.6488 63.0121 78.3488C62.7713 78.8624 62.5788 79.3972 62.437 79.9464C61.9896 81.4163 61.2228 83.8447 58.6665 83.7808C58.103 83.7359 57.5558 83.5698 57.0622 83.2941C56.5687 83.0184 56.1405 82.6395 55.8067 82.1832C55.2313 81.5249 54.6977 80.8313 54.2091 80.1062C53.2185 78.6364 52.3718 77.3742 51.1416 77.1026C50.5123 77.039 49.878 77.1553 49.3123 77.4382C48.7466 77.721 48.2729 78.1587 47.9463 78.7003C47.1149 80.0852 46.6426 81.6558 46.5723 83.2695C46.3486 85.3997 46.6362 86.7897 47.435 87.4394C48.417 87.9505 49.5346 88.1405 50.6303 87.9826C51.8776 87.9041 53.1293 88.0282 54.3369 88.3501C55.6584 88.8591 56.8209 89.7102 57.7052 90.8163C58.5895 91.9224 59.1639 93.2437 59.3695 94.6448C59.3695 94.9484 60.6796 101.978 57.4204 103.544C56.9758 103.729 56.4951 103.81 56.0144 103.783ZM17.9903 40.2129C20.768 40.2237 23.4516 41.2201 25.5632 43.0247C26.4061 43.7362 27.0925 44.6146 27.5792 45.6045C28.0659 46.5943 28.3423 47.6743 28.391 48.7763C28.5029 52.1313 26.5857 54.6876 24.7164 57.148C23.6029 58.4676 22.6781 59.9355 21.9685 61.5095C19.9874 66.5262 23.2306 72.118 27.0171 77.4861L35.3728 89.1649C35.8518 90.118 36.5619 90.936 37.4381 91.5444C38.3144 92.1527 39.329 92.5321 40.3894 92.6478L41.0125 92.7916C44.5333 93.6608 47.8532 95.2014 50.7901 97.3289L51.6688 98.0159C54.5925 100.348 55.6789 100.716 56.0623 100.62C56.5487 98.8481 56.6035 96.9855 56.2221 95.188C56.1135 94.3556 55.7937 93.5648 55.2931 92.8909C54.7925 92.2169 54.1278 91.6822 53.3623 91.3377C52.4833 91.1328 51.5783 91.0627 50.6783 91.13C48.8464 91.347 46.9966 90.9114 45.4539 89.8998C43.7125 88.5258 43.0415 86.2252 43.393 82.8861C43.5191 80.7398 44.178 78.6588 45.3102 76.831C45.9905 75.7703 46.9693 74.9343 48.1234 74.4283C49.2775 73.9223 50.5555 73.7689 51.7966 73.9872C54.257 74.5304 55.615 76.5434 56.8132 78.3168C57.2086 78.9385 57.6407 79.536 58.1073 80.1062C58.4908 80.5376 58.6665 80.5855 58.6825 80.5855C58.9248 80.0725 59.1174 79.5375 59.2576 78.9879C59.4634 78.2537 59.7417 77.5419 60.0884 76.863C60.8962 75.6144 62.0435 74.6223 63.3956 74.0032C64.1007 73.6519 64.7474 73.1938 65.3128 72.6452C65.8162 71.9203 66.1793 71.1074 66.3832 70.2487C66.6609 69.2793 67.0524 68.3462 67.5495 67.4688C69.1471 65.0244 71.7513 64.0658 74.1158 63.2031C75.9286 62.754 77.5853 61.8207 78.9088 60.503C79.3499 59.8978 79.7198 59.2438 80.0111 58.5539C80.5564 57.0909 81.4898 55.8039 82.7112 54.8314C84.2048 53.9536 85.9162 53.516 87.6479 53.5692C88.8426 53.6804 90.039 53.3756 91.0349 52.7065C91.6521 51.8589 92.0025 50.8465 92.0415 49.7988C92.2811 48.0254 92.2651 45.0058 90.7314 44.6064C90.0617 44.5582 89.3891 44.6396 88.7503 44.846C88.007 45.1306 87.2094 45.2453 86.416 45.1818C85.6227 45.1182 84.8535 44.8779 84.165 44.4786C83.4558 43.883 82.9067 43.1196 82.5674 42.2578C82.4111 41.8734 82.1772 41.5254 81.8804 41.2353C81.5609 41.0436 80.5863 41.5229 79.6277 42.6732L78.8449 43.6158C77.5518 45.301 76.0606 46.8244 74.4034 48.1532C73.2712 49.0694 71.9405 49.7084 70.5175 50.0191C69.0945 50.3298 67.6185 50.3035 66.2074 49.9425C65.3609 49.6591 64.5806 49.2072 63.9134 48.6141C63.2461 48.0211 62.7059 47.2991 62.3251 46.4916C61.9941 45.8254 61.8073 45.0969 61.777 44.3535C61.7468 43.6102 61.8736 42.8689 62.1494 42.178C63.0466 40.4791 64.4705 39.1169 66.2074 38.2957L72.9975 34.3495C73.5407 34.0299 74.3555 33.5666 74.5951 33.0873C74.8348 32.608 74.3235 31.5855 73.1572 30.3074C72.9296 30.0325 72.66 29.7952 72.3584 29.6045C71.8951 29.4287 70.8886 30.1796 70.1536 30.7228L69.8501 30.9625C65.9799 33.5343 61.3074 34.6131 56.7014 33.998C53.3734 33.5766 50.0867 32.8765 46.8759 31.9051L44.1599 31.1701C39.8707 30.0582 35.5091 29.2468 31.107 28.7417C28.5525 28.3157 25.945 28.3157 23.3904 28.7417C20.3187 29.5734 17.4522 31.0311 14.9708 33.0234C11.8066 35.3172 8.83078 37.8602 6.07185 40.6282C5.2251 41.475 2.55702 44.3667 3.67538 46.2999C3.72953 46.4102 3.81227 46.504 3.91502 46.5715C4.19155 46.4387 4.45386 46.2781 4.69787 46.0922C8.30856 43.52 12.3986 40.6123 17.3033 40.1809L17.9903 40.2129Z" fill="#DFEAEF"/>
<path d="M68.0843 95.1724H67.5571C66.8193 95.0036 66.127 94.6765 65.528 94.2138L61.0067 91.0185C60.8854 90.9341 60.7776 90.8318 60.6872 90.7149C60.477 90.4593 60.3241 90.1617 60.2387 89.842C60.1533 89.5223 60.1373 89.188 60.1919 88.8617C60.2579 88.4949 60.3983 88.1456 60.6044 87.8351C60.8104 87.5246 61.0778 87.2596 61.3901 87.0563C62.1429 86.6195 63.0214 86.4505 63.8825 86.577C66.9171 86.8923 69.7143 88.3624 71.695 90.683C71.8304 90.8434 71.9329 91.029 71.9966 91.2291C72.0603 91.4292 72.0839 91.6398 72.0661 91.8491C72.0483 92.0583 71.9894 92.262 71.8928 92.4484C71.7963 92.6349 71.6639 92.8004 71.5033 92.9357C71.4121 93.0143 71.3098 93.0789 71.1997 93.1274C71.0311 93.5003 70.7986 93.841 70.5127 94.1339C69.871 94.7855 68.9987 95.1585 68.0843 95.1724ZM65.3044 90.1078L67.3654 91.5457C67.5874 91.7254 67.8351 91.8708 68.1003 91.9771C68.1844 91.9314 68.2558 91.8656 68.308 91.7854C67.4418 91.03 66.4306 90.4591 65.3363 90.1078H65.3044Z" fill="#DFEAEF"/>
<path d="M103.71 44.7505C103.064 44.7857 102.42 44.6681 101.828 44.4071C101.237 44.1461 100.716 43.7493 100.307 43.2488C99.7774 42.5316 99.4919 41.6637 99.4919 40.7724C99.5106 39.1784 99.7858 37.5978 100.307 36.0913C100.946 33.9025 101.281 32.4966 100.546 31.4261C99.947 30.728 99.1917 30.1807 98.3416 29.8285L97.2073 29.2054C95.4019 28.135 93.5806 26.0101 94.3155 23.5657C95.2102 20.642 98.789 20.3704 99.9712 20.2266L120.389 18.5011C123.584 18.2295 127.802 17.8621 130.598 19.8272C131.122 20.1438 131.572 20.5683 131.919 21.0724C132.266 21.5765 132.502 22.1486 132.611 22.7509C132.835 24.5722 131.621 25.9462 130.438 27.3841C129.864 28.0122 129.356 28.6974 128.921 29.4291C128.697 29.8604 128.489 30.3078 128.266 30.7711C127.163 33.1037 125.917 35.7558 123.105 36.6984C122.069 37.0046 120.988 37.1289 119.91 37.0658C119.431 37.0658 118.935 37.0658 118.456 37.0658C116.251 37.3055 114.318 38.8552 112.289 40.5008C109.988 42.3541 107.624 44.2712 104.509 44.6387L103.71 44.7505ZM124.271 21.5047C123.009 21.5047 121.715 21.6166 120.661 21.6964L100.243 23.4379C97.9742 23.6296 97.4629 24.1888 97.367 24.5083C97.2712 24.8278 97.8623 25.8823 98.8369 26.4734C99.1564 26.6651 99.4919 26.8409 99.8274 27.0166C101.151 27.5898 102.31 28.4851 103.198 29.6208C104.796 32.0013 104.061 34.6534 103.374 36.986C102.963 38.1641 102.731 39.3975 102.687 40.6446C102.668 40.8795 102.724 41.1143 102.847 41.3156C103.03 41.4331 103.234 41.5121 103.449 41.5478C103.663 41.5836 103.882 41.5752 104.093 41.5233C106.298 41.2677 108.199 39.7179 110.228 38.0883C112.529 36.2191 114.909 34.3019 118.057 33.9504C118.669 33.9184 119.282 33.9184 119.894 33.9504C120.629 34.0058 121.368 33.941 122.083 33.7587C123.6 33.2475 124.463 31.4102 125.374 29.477C125.614 28.9977 125.837 28.5024 126.077 28.0391C126.617 27.0879 127.26 26.1986 127.994 25.387C128.601 24.7 129.496 23.6456 129.432 23.2302C129.432 23.1343 129.272 22.8787 128.761 22.5272C127.393 21.7636 125.835 21.4087 124.271 21.5047Z" fill="#DFEAEF"/>
<path d="M169.436 161.155C168.58 161.158 167.727 161.056 166.896 160.852C164.952 160.334 163.189 159.291 161.799 157.837C160.41 156.382 159.448 154.573 159.019 152.608C158.895 151.952 158.805 151.291 158.748 150.627C158.705 149.667 158.5 148.722 158.141 147.831C157.937 147.45 157.702 147.086 157.438 146.744C157.093 146.275 156.778 145.784 156.495 145.275C155.975 144.099 155.646 142.848 155.521 141.568L154.466 133.915C154.077 132.285 154.335 130.567 155.185 129.122C155.492 128.714 155.852 128.349 156.255 128.036C156.455 127.881 156.637 127.704 156.799 127.509C157.454 126.662 156.639 124.937 155.537 123.77L154.85 123.067C153.13 121.656 151.992 119.659 151.654 117.46C151.635 116.692 151.71 115.924 151.878 115.175C152.074 114.551 152.074 113.882 151.878 113.258C151.654 112.874 150.887 112.635 149.641 112.555C146.926 112.392 144.201 112.51 141.509 112.906L140.598 113.034C138.625 113.472 136.585 113.526 134.591 113.194C129.559 112.107 126.603 106.931 125.9 102.298C125.576 99.6099 125.523 96.8963 125.74 94.1977C125.82 92.4722 125.9 90.8426 125.852 89.213V88.7018C125.642 87.2663 125.789 85.8012 126.279 84.4359C126.77 83.0706 127.589 81.847 128.664 80.8733C137.18 71.1755 145.423 67.7246 152.517 70.872C154.393 71.8242 156.086 73.1007 157.518 74.6425C158.574 75.7462 159.766 76.7124 161.064 77.5182C161.791 77.9684 162.636 78.1907 163.49 78.1565C164.344 78.1224 165.169 77.8333 165.857 77.3265C167.627 76.2952 169.703 75.9218 171.721 76.2721C176.043 77.3555 179.825 79.973 182.361 83.6372C184.561 86.8177 186.404 90.2306 187.857 93.8143L188.209 94.5811C189.982 98.5114 192.091 102.298 195.542 103.368L195.845 103.464C197.443 103.959 200.191 104.774 200.143 107.426C200.093 108.207 199.828 108.96 199.376 109.599C197.916 111.802 196.264 113.871 194.439 115.782C193.529 116.788 192.634 117.795 191.771 118.833C188.927 122.332 187.585 125.464 187.681 128.419C187.714 129.218 187.8 130.013 187.937 130.8C188.276 132.419 188.32 134.086 188.065 135.721C187.49 137.73 186.456 139.579 185.045 141.121C184.47 141.851 183.936 142.614 183.448 143.405C182.478 145.256 181.778 147.236 181.371 149.285C180.846 152.226 179.655 155.008 177.888 157.417C176.836 158.618 175.535 159.575 174.075 160.22C172.615 160.866 171.032 161.185 169.436 161.155ZM147.213 109.248C148.076 109.248 148.938 109.248 149.801 109.248C150.721 109.208 151.636 109.391 152.471 109.78C153.305 110.17 154.033 110.754 154.594 111.484C155.232 112.769 155.357 114.248 154.945 115.622C154.836 116.121 154.782 116.63 154.786 117.14C155.137 118.562 155.966 119.819 157.134 120.703C157.374 120.958 157.629 121.198 157.853 121.454C159.93 123.642 161.176 126.934 159.323 129.33C159.03 129.7 158.698 130.037 158.332 130.337C158.123 130.497 157.93 130.68 157.757 130.88C157.444 131.68 157.399 132.56 157.629 133.388L158.7 141.041C158.765 141.971 158.986 142.884 159.355 143.741C159.551 144.112 159.781 144.465 160.042 144.795C161.256 146.339 161.914 148.247 161.911 150.211C161.911 150.771 162.039 151.33 162.151 151.809C162.434 153.197 163.102 154.478 164.081 155.503C165.059 156.528 166.307 157.256 167.681 157.603C169.054 157.951 170.498 157.903 171.846 157.466C173.194 157.028 174.391 156.22 175.299 155.132C176.735 153.083 177.701 150.743 178.127 148.278C178.6 145.929 179.419 143.662 180.556 141.552C181.127 140.639 181.757 139.764 182.441 138.932C183.494 137.994 184.265 136.781 184.665 135.429C185.066 134.077 185.082 132.639 184.71 131.279C184.555 130.365 184.459 129.442 184.422 128.515C184.31 124.777 185.892 120.958 189.215 116.836C190.11 115.734 191.068 114.68 191.979 113.641C193.68 111.87 195.22 109.95 196.58 107.906C196.699 107.737 196.795 107.555 196.868 107.362C196.244 106.968 195.558 106.682 194.839 106.516L194.519 106.42C189.854 104.982 187.282 100.508 185.205 95.8912L184.869 95.1243C183.502 91.7545 181.777 88.5409 179.725 85.5384C177.656 82.5016 174.557 80.3167 171.002 79.3875C169.663 79.1668 168.289 79.4393 167.135 80.1543C165.99 80.8748 164.668 81.265 163.315 81.2819C161.961 81.2988 160.63 80.9418 159.467 80.2502C157.917 79.3187 156.499 78.185 155.249 76.8792C154.07 75.5903 152.682 74.51 151.143 73.6839C143.97 70.4885 136.237 76.8792 131.013 82.8703C130.22 83.649 129.59 84.5777 129.159 85.6023C128.935 86.5327 128.875 87.4952 128.984 88.4462V88.9893C129.063 90.7468 128.984 92.5202 128.888 94.2456C128.681 96.7307 128.724 99.2302 129.016 101.707C129.559 105.253 131.684 109.2 135.214 109.967C136.811 110.18 138.433 110.115 140.007 109.775L140.95 109.631C143.025 109.348 145.119 109.22 147.213 109.248Z" fill="#DFEAEF"/>
<path d="M191.243 147.751C190.91 147.755 190.577 147.717 190.253 147.639C189.648 147.523 189.091 147.228 188.655 146.793C188.331 146.469 188.076 146.083 187.904 145.658C187.288 144.078 187.143 142.353 187.486 140.691C187.829 139.03 188.646 137.504 189.837 136.296L190.013 136.12C190.147 136.01 190.271 135.887 190.381 135.753V134.954C190.464 133.978 190.747 133.029 191.211 132.166C191.676 131.303 192.312 130.545 193.081 129.937C193.605 129.496 194.222 129.177 194.885 129.003C195.548 128.829 196.241 128.805 196.915 128.931C197.432 129.04 197.922 129.252 198.355 129.554C198.789 129.855 199.158 130.241 199.439 130.688C200.749 132.797 200.174 135.961 199.871 137.223C199.345 139.162 198.56 141.021 197.538 142.751C196.909 144.037 196.054 145.201 195.014 146.186C193.983 147.139 192.646 147.694 191.243 147.751ZM190.972 144.444C191.343 144.484 191.719 144.441 192.072 144.32C192.426 144.198 192.748 144.001 193.017 143.741C193.766 142.996 194.387 142.132 194.854 141.185C195.734 139.681 196.416 138.07 196.883 136.392C197.335 135.077 197.335 133.649 196.883 132.334C196.835 132.245 196.766 132.168 196.683 132.11C196.6 132.051 196.504 132.013 196.404 131.998C196.187 131.98 195.969 132.006 195.763 132.075C195.557 132.143 195.368 132.253 195.205 132.398C194.397 133.043 193.87 133.976 193.736 135.002V135.258C193.755 135.8 193.674 136.342 193.496 136.855C193.234 137.42 192.852 137.922 192.378 138.325L192.234 138.469C191.496 139.231 190.991 140.186 190.776 141.224C190.561 142.263 190.645 143.34 191.02 144.332L190.972 144.444Z" fill="#DFEAEF"/>
<path d="M255.882 106.419C253.677 106.419 251.089 105.045 248.628 102.393L242.382 95.795C240.337 93.6541 237.365 91.6251 235.703 92.9512C234.585 93.8459 234.585 95.7471 234.585 97.7441V98.8305C234.584 99.9395 234.355 101.036 233.912 102.053C233.47 103.07 232.823 103.985 232.013 104.742C231.544 105.138 230.991 105.422 230.395 105.571C229.8 105.721 229.178 105.732 228.578 105.605C227.497 105.353 226.511 104.799 225.734 104.007C221.598 100.183 218.775 95.1507 217.666 89.6281C217.625 89.1265 217.472 88.6406 217.219 88.2061C216.892 87.9998 216.528 87.8587 216.148 87.7908L215.861 87.7109C214.201 87.1768 212.597 86.4868 211.068 85.6499C209.958 85.0447 208.811 84.5111 207.633 84.0523C206.104 83.4599 204.428 83.3594 202.84 83.7647L205.556 85.4582C205.759 85.582 205.931 85.7495 206.061 85.9485C206.191 86.1475 206.275 86.373 206.307 86.6085C206.521 88.2911 206.255 90.0001 205.54 91.5382C204.825 93.0763 203.689 94.3809 202.265 95.3012C200.84 96.2216 199.184 96.7203 197.488 96.7399C195.791 96.7594 194.124 96.2989 192.679 95.4116C190.685 93.9668 189.046 92.0874 187.886 89.9156L179.578 76.9587C179.145 76.1175 178.515 75.3938 177.741 74.8498C177.345 74.6798 176.933 74.5513 176.51 74.4664C175.777 74.3197 175.067 74.0724 174.402 73.7314C173.839 73.4035 173.368 72.9386 173.033 72.38C172.697 71.8214 172.509 71.1871 172.484 70.5361C172.476 70.4191 172.476 70.3017 172.484 70.1846C168.756 68.3622 164.518 67.8663 160.47 68.7787L159.767 68.9545C158.288 69.4322 156.715 69.5473 155.182 69.29C154.201 68.9986 153.27 68.5625 152.418 67.9959C152.21 67.8521 151.986 67.7243 151.763 67.5965C149.789 66.5081 147.532 66.0417 145.288 66.2584C143.044 66.475 140.919 67.3647 139.189 68.8107C139.003 68.9711 138.782 69.0863 138.543 69.1472C138.305 69.2082 138.056 69.2133 137.815 69.1622C137.578 69.1115 137.356 69.0074 137.165 68.858C136.974 68.7085 136.819 68.5175 136.713 68.2994C134.492 63.6982 134.94 59.7839 137.863 58.2981C138.411 58.0495 138.984 57.8619 139.573 57.739C139.963 57.6791 140.337 57.5434 140.675 57.3395C140.835 57.1318 140.531 56.2531 140.324 55.662C140.187 55.3119 140.07 54.9546 139.972 54.5916C139.777 53.7905 139.825 52.9494 140.109 52.1755C140.394 51.4017 140.902 50.73 141.57 50.246C142.02 49.9475 142.556 49.8046 143.096 49.8392C143.635 49.8739 144.149 50.084 144.557 50.4377C144.633 50.4947 144.698 50.5651 144.749 50.6454L154.926 47.7057C156.939 47.1146 159 45.9483 158.745 44.75C158.709 44.5022 158.576 44.2788 158.375 44.1289C158.174 43.9791 157.922 43.9152 157.674 43.9512C157.426 43.9872 157.203 44.1203 157.053 44.321C156.903 44.5217 156.839 44.7738 156.875 45.0217C156.894 45.2979 156.84 45.5742 156.72 45.8234C156.599 46.0727 156.416 46.2864 156.188 46.4436C155.958 46.6063 155.689 46.7052 155.409 46.7305C155.128 46.7557 154.846 46.7064 154.591 46.5873L146.459 42.8329C146.231 42.7274 146.031 42.5697 145.876 42.3726C145.72 42.1755 145.613 41.9446 145.564 41.6985C145.512 41.4543 145.519 41.2013 145.582 40.9599C145.646 40.7185 145.766 40.4954 145.931 40.3086C148.639 37.2834 151.624 34.5181 154.846 32.0487C157.371 30.1156 163.745 26.0256 168.65 29.7481C169.127 30.1309 169.575 30.5473 169.992 30.9943C170.366 31.4061 170.784 31.7758 171.238 32.0967C172.113 32.5169 173.064 32.756 174.034 32.7996H174.306C177.764 33.3828 181.287 33.4743 184.77 33.0712C186.379 32.7133 187.917 32.0925 189.324 31.2339C190.606 30.4911 191.96 29.8808 193.366 29.4126C195.687 28.7937 198.095 28.5669 200.491 28.7416C203.383 28.7416 205.875 28.8694 208.591 27.1439C209.422 26.6167 210.189 26.0256 210.892 25.4664C213.081 23.7569 215.333 21.9835 219.104 22.2711C223.274 22.5427 226.868 25.0191 230.287 27.3996C231.911 28.5964 233.626 29.6648 235.416 30.5949C243.74 34.5251 252.99 33.2949 262.895 31.9688C271.635 30.8026 280.677 29.6043 289.161 32.2564C290.385 32.595 291.528 33.1771 292.521 33.9677C293.515 34.7583 294.339 35.7412 294.944 36.8577C295.228 37.4513 295.375 38.1009 295.375 38.7589C295.375 39.4168 295.228 40.0664 294.944 40.6601C294.401 41.6535 293.622 42.4984 292.676 43.1204C292.436 43.3122 292.196 43.5039 291.989 43.6956C290.95 44.6767 290.279 45.9852 290.09 47.4018C289.901 48.8184 290.205 50.2569 290.95 51.4762C291.105 51.7105 291.196 51.9816 291.213 52.2621C291.229 52.5426 291.172 52.8226 291.046 53.0738C290.914 53.3295 290.715 53.5447 290.47 53.6966C290.225 53.8485 289.944 53.9314 289.656 53.9365C286.889 53.9088 284.203 52.9958 281.992 51.3313C279.781 49.6667 278.162 47.338 277.37 44.6861C276.219 44.3205 274.998 44.2329 273.807 44.4305C272.849 44.6702 271.858 45.5968 272.018 46.4436C272.178 47.2903 272.993 47.7217 274.351 48.5045C275.811 48.9699 277.035 49.9799 277.77 51.3247C278.505 52.6695 278.694 54.2457 278.297 55.7259L275.437 75.361C275.395 75.6436 275.278 75.9098 275.098 76.1318C274.918 76.3537 274.682 76.5234 274.414 76.6232C274.148 76.7245 273.86 76.7527 273.579 76.705C273.298 76.6572 273.035 76.5352 272.817 76.3516C270.542 74.4112 268.581 72.1318 267.001 69.5935C266.674 70.4086 266.513 71.2812 266.53 72.1595C266.546 73.0378 266.739 73.9038 267.097 74.706C267.559 75.7538 268.092 76.7681 268.695 77.7416C269.792 79.5032 270.601 81.4286 271.091 83.4452C271.346 84.4376 271.332 85.4798 271.051 86.4651C270.77 87.4504 270.233 88.3435 269.494 89.0529C267.704 90.5707 265.452 90.2032 263.646 89.9156C262.604 89.6067 261.494 89.6067 260.451 89.9156C258.582 90.9381 259.844 94.9323 260.116 95.7151C260.707 97.4566 262.528 102.761 258.965 105.397C258.082 106.076 256.995 106.436 255.882 106.419ZM236.966 89.3245C239.314 89.3245 242.014 90.7784 244.698 93.5902L250.945 100.189C251.616 100.891 255.019 104.295 256.968 102.857C258.087 102.042 258.087 99.9968 256.968 96.7856C255.37 92.1683 256.041 88.6695 258.773 87.1996C260.455 86.4623 262.34 86.3269 264.11 86.8162C265.707 87.0878 266.762 87.2156 267.305 86.6884C267.585 86.3263 267.775 85.9025 267.858 85.4524C267.941 85.0022 267.916 84.5386 267.784 84.1002C267.361 82.4042 266.671 80.7863 265.739 79.3072C265.103 78.2131 264.532 77.0821 264.03 75.9202C262.56 72.2936 262.959 67.4687 266.554 65.6154C266.741 65.5185 266.945 65.4594 267.154 65.4415C267.364 65.4235 267.575 65.4472 267.775 65.511C267.975 65.5748 268.161 65.6776 268.322 65.8134C268.482 65.9492 268.615 66.1154 268.711 66.3024C269.76 68.3143 271.071 70.1784 272.609 71.8462L275.006 55.2786C275.141 54.6306 275.141 53.9615 275.006 53.3135C274.718 52.5146 273.68 51.9075 272.593 51.2685C271.674 50.8961 270.849 50.3226 270.18 49.5899C269.511 48.8573 269.014 47.9842 268.727 47.0347C268.585 45.7375 268.932 44.4339 269.7 43.379C270.468 42.3241 271.602 41.5939 272.881 41.3311C274.914 40.9748 277.004 41.1453 278.952 41.8264C279.246 41.9037 279.512 42.0637 279.719 42.2873C279.926 42.5109 280.064 42.7889 280.118 43.0885C280.494 44.8268 281.336 46.4297 282.555 47.7247C283.774 49.0197 285.323 49.9577 287.036 50.4377C286.66 48.8044 286.719 47.101 287.207 45.4975C287.694 43.894 288.594 42.4464 289.816 41.2991C290.087 41.0595 290.391 40.8358 290.679 40.5962C291.213 40.2516 291.67 39.8001 292.021 39.2701C292.108 39.0938 292.153 38.8997 292.153 38.7029C292.153 38.5062 292.108 38.3121 292.021 38.1358C291.162 36.7407 289.801 35.7284 288.218 35.3079C280.406 32.8635 271.714 34.0138 263.327 35.1322C253.437 36.4582 243.228 37.8162 234.042 33.5345C232.099 32.5329 230.235 31.3846 228.466 30.0996C225.351 27.9587 222.075 25.738 218.88 25.5303C216.324 25.3705 214.854 26.5208 212.841 28.1025C212.042 28.7256 211.243 29.3647 210.285 29.9718C207.304 31.7269 203.833 32.467 200.395 32.0807C198.334 31.9204 196.261 32.104 194.26 32.6239C193.054 33.0398 191.893 33.575 190.793 34.2215C189.096 35.2481 187.238 35.9826 185.297 36.3943C181.504 36.8746 177.66 36.7938 173.89 36.1547H173.619C172.194 36.0768 170.804 35.6897 169.545 35.0204C168.861 34.5635 168.233 34.0272 167.675 33.4227C167.366 33.0876 167.035 32.7728 166.685 32.4801C163.49 30.0357 158.265 33.6144 156.763 34.7807C154.275 36.6878 151.936 38.7815 149.766 41.0435L154.207 43.0885C154.519 42.5442 154.949 42.0775 155.466 41.7234C155.984 41.3692 156.575 41.1368 157.195 41.0435C158.225 40.9123 159.267 41.1658 160.122 41.7554C160.977 42.3449 161.585 43.2292 161.828 44.2388C162.435 47.0986 160.119 49.6708 155.757 50.933L145.276 53.9845C144.509 54.194 143.693 54.1203 142.976 53.7768C142.967 53.8243 142.967 53.873 142.976 53.9206C142.976 54.1922 143.151 54.4798 143.247 54.7833C143.622 55.4987 143.809 56.297 143.792 57.1042C143.775 57.9114 143.555 58.7013 143.151 59.4005C142.399 60.2656 141.362 60.8324 140.228 60.9982C139.876 61.057 139.532 61.1589 139.205 61.3017C138.151 61.8289 138.279 63.5864 138.79 65.2479C140.969 63.9443 143.45 63.232 145.989 63.1816C148.528 63.1311 151.036 63.7443 153.265 64.9603L154 65.4077C154.562 65.8029 155.182 66.11 155.837 66.3183C156.872 66.44 157.92 66.3253 158.904 65.9828L159.671 65.8071C165.017 64.6019 170.621 65.494 175.328 68.2994C175.536 68.4259 175.713 68.5983 175.844 68.8034C175.976 69.0086 176.059 69.2411 176.086 69.4831C176.114 69.7252 176.086 69.9704 176.005 70.2C175.923 70.4296 175.79 70.6374 175.616 70.8077C175.669 70.9184 175.745 71.0165 175.839 71.0953C176.253 71.28 176.688 71.4141 177.133 71.4947C177.812 71.6356 178.471 71.8554 179.099 72.1498C180.379 72.9332 181.436 74.0338 182.166 75.3451L190.378 88.2541C191.322 90.0112 192.636 91.5428 194.228 92.7435C195.107 93.2851 196.114 93.5819 197.146 93.603C198.178 93.6241 199.196 93.3687 200.096 92.8634C200.996 92.3581 201.744 91.6212 202.263 90.7293C202.782 89.8373 203.053 88.8227 203.047 87.7908L199.085 85.1706C198.891 85.0501 198.725 84.8894 198.598 84.6992C198.471 84.509 198.387 84.2939 198.35 84.0682C198.316 83.8413 198.331 83.6097 198.395 83.3891C198.458 83.1686 198.568 82.9643 198.718 82.7901C201.274 79.7546 205.715 79.9623 208.751 81.0487C210.055 81.5449 211.326 82.1266 212.553 82.7901C213.899 83.5277 215.311 84.1375 216.771 84.6114L217.027 84.6913C217.949 84.8716 218.809 85.2902 219.519 85.9056C220.26 86.7385 220.718 87.7841 220.829 88.8932C221.788 93.8017 224.284 98.278 227.955 101.674C228.309 102.064 228.753 102.36 229.249 102.537C229.393 102.57 229.542 102.567 229.684 102.527C229.827 102.488 229.957 102.415 230.064 102.313C230.95 101.377 231.442 100.136 231.438 98.8465V97.7282C231.438 95.2838 231.438 92.2482 233.77 90.4109C234.678 89.6906 235.807 89.3068 236.966 89.3245Z" fill="#DFEAEF"/>
<path d="M288.075 170.278C287.768 170.28 287.462 170.243 287.165 170.166C286.831 170.084 286.533 169.897 286.314 169.632C286.095 169.367 285.968 169.039 285.95 168.696C285.872 167.083 285.167 165.564 283.985 164.462L283.378 163.951C282.779 163.49 282.242 162.953 281.78 162.354C281.147 161.43 280.667 160.411 280.359 159.334C279.879 157.992 279.56 157.177 279.001 157.049C278.488 157.047 277.981 157.156 277.515 157.369C277.192 157.497 276.861 157.604 276.524 157.688C275.139 157.989 273.716 158.069 272.306 157.928C271.056 157.73 269.775 157.851 268.584 158.28C268.062 158.556 267.565 158.877 267.098 159.238C265.612 160.309 263.599 161.746 261.394 160.484C259.19 159.222 259.174 156.426 260.132 154.381C260.365 153.882 260.626 153.396 260.915 152.927C261.363 152.274 261.683 151.543 261.858 150.771C261.886 150.175 261.832 149.578 261.698 148.997C261.618 148.582 261.538 148.15 261.49 147.735C261.344 146.093 261.642 144.442 262.353 142.955C263.064 141.468 264.162 140.2 265.532 139.283C266.792 138.529 268.146 137.944 269.558 137.542C271.157 137.22 272.621 136.424 273.76 135.257C274.075 134.801 274.342 134.314 274.559 133.804C275.003 132.6 275.758 131.536 276.748 130.72C277.845 130.014 279.104 129.601 280.406 129.522C281.213 129.501 281.998 129.258 282.675 128.819C283.011 128.441 283.281 128.009 283.474 127.541C283.931 126.292 284.852 125.267 286.046 124.681C286.562 124.468 287.121 124.382 287.677 124.429C288.233 124.476 288.769 124.656 289.241 124.953C290.038 125.523 290.701 126.26 291.184 127.112C291.667 127.965 291.958 128.913 292.037 129.889C292.037 130.145 292.037 130.416 292.117 130.736C292.117 131.774 292.325 133.724 292.996 134.123C293.124 134.215 293.274 134.272 293.431 134.289C293.587 134.306 293.746 134.282 293.891 134.219C294.127 134.11 294.335 133.948 294.498 133.746C294.662 133.544 294.776 133.306 294.833 133.053C294.954 132.579 295.049 132.099 295.121 131.615C295.219 129.963 295.892 128.398 297.022 127.189C297.252 126.981 297.538 126.845 297.844 126.797C298.151 126.749 298.465 126.791 298.748 126.918C301.543 128.164 303.189 131.151 303.652 135.769L303.748 136.791C303.972 139.331 304.18 141.728 305.569 143.341C305.777 143.581 306.001 143.789 306.225 144.012C307.063 144.729 307.707 145.647 308.094 146.681C308.286 147.567 308.284 148.484 308.089 149.369C307.893 150.254 307.508 151.087 306.959 151.809C305.166 154.631 302.883 157.109 300.217 159.126C299.642 159.558 299.051 159.957 298.46 160.372C296.696 161.403 295.167 162.791 293.971 164.446C293.71 164.871 293.481 165.315 293.284 165.772C292.94 166.524 292.534 167.246 292.069 167.929C291.634 168.606 291.045 169.171 290.352 169.579C289.658 169.987 288.878 170.226 288.075 170.278ZM278.873 153.902C279.158 153.903 279.442 153.935 279.719 153.998C282.084 154.493 282.819 156.634 283.41 158.359C283.638 159.111 283.96 159.83 284.369 160.5C284.684 160.856 285.032 161.182 285.407 161.475C285.663 161.683 285.918 161.89 286.158 162.114C287.503 163.364 288.452 164.98 288.89 166.763C289.134 166.583 289.349 166.368 289.529 166.124C289.881 165.592 290.185 165.031 290.44 164.446C290.711 163.903 290.967 163.36 291.286 162.849C292.706 160.805 294.548 159.089 296.687 157.816C297.246 157.433 297.805 157.033 298.284 156.634C300.65 154.855 302.674 152.663 304.259 150.163C304.962 149.045 305.218 148.246 305.042 147.703C304.797 147.181 304.437 146.722 303.988 146.361C303.7 146.073 303.413 145.802 303.157 145.498C301.096 143.118 300.808 139.938 300.553 137.143L300.457 136.136C300.393 134.186 299.735 132.302 298.572 130.736C298.442 131.219 298.346 131.71 298.284 132.206C298.172 132.797 298.076 133.404 297.917 133.979C297.723 134.708 297.364 135.382 296.868 135.95C296.372 136.518 295.753 136.964 295.057 137.254C294.455 137.499 293.804 137.598 293.157 137.543C292.51 137.487 291.885 137.279 291.334 136.935C289.257 135.673 289.05 132.877 288.922 131.024C288.922 130.752 288.922 130.496 288.922 130.273C288.841 129.297 288.383 128.391 287.644 127.748C287.593 127.719 287.535 127.703 287.476 127.703C287.417 127.703 287.359 127.719 287.308 127.748C286.989 127.876 286.701 128.451 286.398 129.074C286.046 129.884 285.554 130.625 284.944 131.263C283.811 132.208 282.406 132.767 280.934 132.861C280.158 132.897 279.399 133.104 278.713 133.468C278.173 133.989 277.762 134.629 277.515 135.337C277.203 136.035 276.829 136.704 276.396 137.334C274.881 139.052 272.863 140.248 270.629 140.753C269.477 141.075 268.371 141.542 267.338 142.143C266.458 142.733 265.752 143.548 265.294 144.504C264.836 145.459 264.643 146.52 264.734 147.575C264.734 147.927 264.845 148.262 264.893 148.614C265.106 149.508 265.171 150.431 265.085 151.346C264.873 152.552 264.41 153.7 263.727 154.717C263.503 155.1 263.28 155.5 263.088 155.899C262.704 156.746 262.736 157.704 263.088 157.896C263.439 158.088 264.254 157.593 265.325 156.826C265.934 156.359 266.581 155.942 267.258 155.579C268.942 154.893 270.776 154.662 272.578 154.908C273.643 155.029 274.721 154.986 275.773 154.781L276.54 154.541C277.275 154.195 278.064 153.979 278.873 153.902Z" fill="#DFEAEF"/>
<path d="M295.92 125.687C295.134 125.73 294.35 125.568 293.645 125.218C292.94 124.868 292.337 124.342 291.894 123.69C291.593 123.158 291.377 122.581 291.255 121.981C291.213 121.717 291.138 121.459 291.032 121.214C290.678 120.778 290.23 120.428 289.722 120.191C288.847 119.749 288.074 119.128 287.453 118.37C287.183 118.04 287.018 117.638 286.978 117.213C286.938 116.789 287.026 116.362 287.23 115.988C287.435 115.614 287.746 115.31 288.124 115.114C288.503 114.917 288.931 114.839 289.354 114.887L292.629 114.759C294.744 114.477 296.895 114.863 298.78 115.862C299.919 116.649 300.855 117.695 301.512 118.913C302.39 120.278 303.002 121.795 303.318 123.387C303.356 123.644 303.33 123.906 303.244 124.151C303.158 124.396 303.013 124.616 302.822 124.793C302.633 124.971 302.404 125.101 302.153 125.171C301.902 125.24 301.639 125.248 301.384 125.192C300.378 125.033 299.349 125.088 298.365 125.352C297.822 125.464 297.279 125.56 296.767 125.639L295.92 125.687ZM292.198 117.971C292.866 118.417 293.415 119.02 293.796 119.728C294.039 120.206 294.212 120.718 294.307 121.246C294.356 121.515 294.437 121.778 294.547 122.029C294.754 122.38 295.473 122.556 296.272 122.46C296.773 122.396 297.252 122.316 297.71 122.221C298.284 122.094 298.866 122.003 299.451 121.949C299.227 121.467 298.976 120.998 298.7 120.543C298.292 119.759 297.713 119.077 297.007 118.546C295.657 117.935 294.158 117.73 292.693 117.955L292.198 117.971Z" fill="#DFEAEF"/>
<path d="M266.873 119.648C264.285 119.648 261.649 118.77 260.595 116.98C259.94 115.878 259.38 113.625 262.927 110.909L263.774 110.302C264.389 109.911 264.953 109.444 265.451 108.912C265.828 108.416 266.149 107.88 266.41 107.315C266.758 106.542 267.187 105.809 267.688 105.126C268.133 104.57 268.691 104.115 269.324 103.79C269.957 103.465 270.652 103.278 271.363 103.241C271.866 103.222 272.366 103.318 272.826 103.523C273.286 103.728 273.693 104.036 274.015 104.423C274.215 104.661 274.342 104.953 274.379 105.263C274.416 105.572 274.361 105.885 274.223 106.164C273.874 106.856 273.675 107.613 273.639 108.387C273.603 109.161 273.731 109.933 274.015 110.654C274.245 111.155 274.364 111.7 274.366 112.251C274.31 112.973 274.031 113.66 273.567 114.216C272.743 115.381 272.087 116.656 271.618 118.003C271.547 118.211 271.434 118.402 271.285 118.564C271.137 118.726 270.957 118.856 270.756 118.946C269.523 119.441 268.202 119.68 266.873 119.648ZM270.612 106.644C270.433 106.746 270.276 106.881 270.149 107.043C269.789 107.544 269.479 108.08 269.222 108.641C268.862 109.453 268.406 110.22 267.864 110.925C267.189 111.686 266.415 112.352 265.563 112.906L264.828 113.434C263.454 114.488 263.231 115.175 263.231 115.335C263.726 116.182 266.618 116.789 268.759 116.182C269.282 114.822 269.975 113.534 270.82 112.347L271.043 112.028V111.868C270.406 110.202 270.272 108.385 270.66 106.644H270.612Z" fill="#DFEAEF"/>
<path d="M256.313 122.348H256.201C252.814 122.204 250.194 115.958 249.907 115.175C249.107 113.117 248.032 111.176 246.711 109.407C246.544 109.18 246.439 108.913 246.408 108.632C246.377 108.352 246.421 108.068 246.536 107.81C246.653 107.546 246.84 107.319 247.077 107.153C247.313 106.987 247.59 106.888 247.878 106.867C248.98 106.787 251.52 106.611 252.91 108.465C253.23 108.917 253.473 109.419 253.629 109.95C253.676 110.086 253.729 110.22 253.789 110.35C254.373 111.194 255.085 111.944 255.898 112.571C258.007 114.456 260.915 117.044 259.365 120.143C259.137 120.775 258.724 121.324 258.179 121.717C257.635 122.11 256.985 122.33 256.313 122.348ZM253.022 114.36C253.709 116.18 254.802 117.819 256.217 119.153C256.302 119.031 256.377 118.903 256.441 118.769C256.904 117.859 255.131 116.277 253.709 114.999C253.485 114.743 253.246 114.536 253.022 114.312V114.36Z" fill="#DFEAEF"/>
<path d="M269.254 129.154C268.449 129.139 267.646 129.049 266.858 128.883C265.118 128.54 263.409 128.06 261.745 127.445C261.331 127.32 260.946 127.115 260.611 126.841C260.276 126.567 260 126.229 259.796 125.847C259.543 125.249 259.505 124.581 259.689 123.958C259.872 123.335 260.266 122.794 260.803 122.428C261.49 121.992 262.275 121.733 263.087 121.677C266.335 121.306 269.62 121.425 272.833 122.029C273.088 122.077 273.328 122.186 273.531 122.348C273.734 122.509 273.895 122.718 273.999 122.955C274.233 123.378 274.378 123.844 274.428 124.324C274.477 124.804 274.429 125.29 274.287 125.751C274.107 126.355 273.804 126.915 273.397 127.396C272.99 127.878 272.488 128.269 271.922 128.547C271.091 128.95 270.178 129.158 269.254 129.154ZM263.998 124.889C265.143 125.245 266.306 125.543 267.481 125.783C268.475 126.089 269.538 126.089 270.533 125.783C270.818 125.634 271.043 125.392 271.172 125.096C268.798 124.732 266.389 124.662 263.998 124.889Z" fill="#DFEAEF"/>
<path d="M276.649 112.459C276.44 112.476 276.229 112.451 276.028 112.387C275.828 112.322 275.643 112.218 275.482 112.082C275.322 111.945 275.19 111.778 275.094 111.591C274.999 111.404 274.941 111.199 274.924 110.989C274.907 110.78 274.932 110.569 274.997 110.368C275.061 110.168 275.165 109.982 275.302 109.822C275.438 109.662 275.605 109.53 275.792 109.434C275.98 109.339 276.184 109.281 276.394 109.264C276.718 109.223 277.038 109.159 277.352 109.072C277.537 109.021 277.715 108.946 277.88 108.849C277.507 108.709 277.199 108.436 277.017 108.082C275.875 105.841 274.887 103.524 274.061 101.148C273.714 100.358 273.641 99.4754 273.854 98.6395C274.153 97.8606 274.737 97.2244 275.487 96.8596C276.237 96.4948 277.098 96.4286 277.896 96.6744C279.004 97.0756 279.959 97.8129 280.628 98.7833C282.226 100.776 283.059 103.275 282.976 105.829C282.903 107.227 282.418 108.572 281.583 109.695C280.747 110.818 279.597 111.669 278.279 112.14C277.827 112.26 277.368 112.356 276.905 112.427L276.649 112.459ZM276.953 99.7579C276.953 99.8857 277.049 100.045 277.065 100.109C277.812 102.227 278.687 104.297 279.685 106.308C279.746 106.084 279.783 105.853 279.797 105.621C279.82 103.838 279.209 102.106 278.071 100.732C277.912 100.525 277.432 99.8857 277.001 99.7579H276.953Z" fill="#DFEAEF"/>
<path d="M280.391 76.4641C279.747 76.4988 279.107 76.3526 278.542 76.042C277.977 75.7314 277.511 75.2688 277.195 74.7067C277.042 74.4069 276.987 74.0663 277.038 73.7334C277.09 73.4006 277.246 73.0926 277.483 72.8534C278.784 71.7996 279.741 70.3809 280.231 68.7794C280.331 68.0533 280.331 67.3168 280.231 66.5907C280.231 66.3191 280.231 66.0475 280.151 65.7759C280.039 64.6298 280.233 63.4746 280.713 62.4278C281.193 61.381 281.942 60.4801 282.883 59.8166C283.552 59.465 284.313 59.3256 285.063 59.4169C285.814 59.5082 286.519 59.826 287.085 60.3279C290.44 62.9001 287.644 70.3931 287.612 70.473C287.184 71.6808 286.523 72.7922 285.664 73.7436C284.806 74.695 283.769 75.4675 282.611 76.0168C281.912 76.3231 281.154 76.4757 280.391 76.4641ZM283.234 65.4883C283.234 65.7279 283.234 65.9835 283.314 66.2232C283.452 67.2357 283.452 68.2622 283.314 69.2747C283.075 70.5634 282.526 71.7749 281.717 72.8055C282.996 71.9918 283.965 70.7704 284.465 69.3386C285.407 66.8463 285.679 63.3954 284.976 62.8521C284.273 62.3089 284.321 62.5805 284.257 62.6125C283.877 62.9837 283.583 63.4334 283.395 63.9302C283.208 64.4269 283.131 64.9587 283.17 65.4883H283.234Z" fill="#DFEAEF"/>
<path d="M308.493 170.805H308.413C308.079 170.796 307.751 170.716 307.451 170.57C307.151 170.424 306.885 170.215 306.672 169.959C306.382 169.592 306.17 169.172 306.046 168.722C305.922 168.271 305.891 167.801 305.953 167.338C306.352 164.047 309.388 162.05 311.64 160.836C313.893 159.622 315.762 158.615 316.353 156.89C316.416 156.723 316.469 156.552 316.513 156.379C316.612 155.731 316.868 155.118 317.257 154.592C317.647 154.066 318.159 153.642 318.75 153.359C319.55 153.129 320.405 153.177 321.174 153.497C321.943 153.816 322.581 154.387 322.984 155.116L323.319 155.628C323.531 156.026 323.825 156.374 324.182 156.65C324.568 156.819 324.873 157.133 325.029 157.525C325.184 157.917 325.178 158.355 325.013 158.743C324.891 159.036 324.685 159.286 324.421 159.462C324.491 159.992 324.491 160.529 324.421 161.06C324.178 162.392 323.628 163.65 322.816 164.734C322.003 165.818 320.951 166.698 319.74 167.306C318.083 168.082 316.324 168.62 314.516 168.904C312.992 169.159 311.509 169.615 310.106 170.262C309.628 170.586 309.07 170.774 308.493 170.805ZM319.676 156.986C319.676 157.097 319.676 157.193 319.596 157.273C319.517 157.353 319.469 157.721 319.389 157.928C318.398 160.836 315.57 162.354 313.286 163.584C311.588 164.298 310.177 165.557 309.276 167.163C310.732 166.567 312.248 166.128 313.797 165.853C315.316 165.598 316.793 165.141 318.191 164.495C318.96 164.115 319.634 163.566 320.16 162.888C320.686 162.209 321.05 161.42 321.226 160.58C321.329 159.895 321.237 159.194 320.96 158.558C320.683 157.922 320.233 157.377 319.66 156.986H319.676Z" fill="#DFEAEF"/>
<path d="M134.143 52.6907C133.958 52.6905 133.774 52.6581 133.6 52.5949C133.332 52.4951 133.096 52.3254 132.916 52.1034C132.736 51.8815 132.619 51.6153 132.577 51.3327C132.06 49.2306 132.233 47.0176 133.073 45.022C133.455 44.3322 133.991 43.7398 134.639 43.2909C135.288 42.842 136.031 42.5487 136.811 42.4338C137.415 42.3324 138.035 42.3798 138.617 42.5719C139.199 42.764 139.725 43.095 140.15 43.5362C140.395 43.7937 140.547 44.1254 140.582 44.4788C141.307 45.6863 141.891 46.9728 142.323 48.3132C142.439 48.6497 142.439 49.0151 142.323 49.3516C141.572 51.4126 139.399 51.2049 138.217 51.0931C137.893 51.07 137.567 51.07 137.243 51.0931C136.464 51.3038 135.76 51.7303 135.214 52.3233C134.914 52.5723 134.533 52.703 134.143 52.6907ZM137.418 45.5812H137.259C136.977 45.6231 136.708 45.7282 136.473 45.8887C136.238 46.0492 136.042 46.2608 135.901 46.5078C135.631 47.0425 135.493 47.6344 135.501 48.2333C136.006 48.0086 136.547 47.8787 137.099 47.8498C137.578 47.819 138.058 47.819 138.537 47.8498H138.808C138.536 47.2169 138.221 46.6031 137.866 46.0125C137.773 45.8544 137.708 45.6815 137.674 45.5013L137.418 45.5812Z" fill="#DFEAEF"/>
<path d="M131.251 41.8102C130.808 41.8168 130.366 41.7576 129.941 41.6345C129.04 41.3931 128.229 40.8943 127.608 40.199C126.986 39.5038 126.581 38.6423 126.442 37.7202C126.313 36.5929 126.501 35.452 126.983 34.4251C127.465 33.3981 128.224 32.5255 129.174 31.9048C129.934 31.3161 130.86 30.9823 131.821 30.9507C132.782 30.9192 133.729 31.1915 134.526 31.7291C135.423 32.4973 136.068 33.5172 136.379 34.6567C136.689 35.7961 136.651 37.0026 136.267 38.1197C136.083 38.7671 135.772 39.3715 135.352 39.898C134.932 40.4245 134.413 40.8626 133.823 41.1871C133.032 41.6095 132.147 41.8239 131.251 41.8102ZM132.113 34.1415C131.673 34.1778 131.252 34.3385 130.899 34.6048C130.464 34.8925 130.114 35.2921 129.886 35.7615C129.659 36.2309 129.562 36.753 129.605 37.2729C129.658 37.5866 129.803 37.8773 130.023 38.1078C130.242 38.3384 130.525 38.4983 130.835 38.567C131.075 38.6273 131.325 38.6386 131.569 38.6002C131.813 38.5618 132.047 38.4744 132.257 38.3433C132.7 38.113 133.033 37.7165 133.184 37.2409C133.372 36.7509 133.421 36.2185 133.325 35.7024C133.229 35.1864 132.992 34.707 132.641 34.3172C132.5 34.1755 132.313 34.0902 132.113 34.0776V34.1415Z" fill="#DFEAEF"/>
<path d="M143.381 13.0527C139.87 13.057 136.504 14.4537 134.021 16.9366C131.538 19.4196 130.141 22.7859 130.137 26.2973C130.137 33.6305 143.381 59.6722 143.381 59.6722C143.381 59.6722 156.626 33.6305 156.626 26.2973C156.626 22.7846 155.23 19.4158 152.747 16.932C150.263 14.4481 146.894 13.0527 143.381 13.0527ZM143.381 31.4417C142.325 31.4449 141.292 31.1346 140.412 30.5502C139.533 29.9657 138.846 29.1335 138.44 28.1587C138.034 27.1839 137.926 26.1105 138.13 25.0743C138.334 24.0382 138.841 23.0859 139.586 22.338C140.332 21.5901 141.283 21.0803 142.318 20.8731C143.354 20.6659 144.428 20.7707 145.404 21.1741C146.38 21.5775 147.214 22.2614 147.801 23.1393C148.388 24.0172 148.701 25.0495 148.701 26.1055C148.685 27.5084 148.118 28.8486 147.123 29.8376C146.128 30.8267 144.784 31.3855 143.381 31.3938V31.4417Z" fill="#FFC200"/>
<path d="M143.381 61.222C143.088 61.2226 142.8 61.1424 142.549 60.9902C142.298 60.8381 142.094 60.6197 141.959 60.3593C140.585 57.6592 128.539 33.7424 128.539 26.2494C128.539 22.313 130.103 18.5378 132.886 15.7544C135.67 12.971 139.445 11.4072 143.381 11.4072C147.318 11.4072 151.093 12.971 153.876 15.7544C156.66 18.5378 158.223 22.313 158.223 26.2494C158.223 33.7424 146.177 57.6592 144.803 60.3593C144.668 60.6197 144.464 60.8381 144.213 60.9902C143.962 61.1424 143.675 61.2226 143.381 61.222ZM143.381 14.6025C140.294 14.6068 137.334 15.8352 135.15 18.0185C132.967 20.2018 131.739 23.1618 131.734 26.2494C131.734 31.314 139.179 47.4822 143.381 56.0456C147.599 47.4822 155.028 31.314 155.028 26.2494C155.011 23.1701 153.777 20.2224 151.595 18.0494C149.413 15.8765 146.461 14.6546 143.381 14.6505V14.6025ZM143.381 32.9915C142.009 32.9947 140.667 32.5907 139.525 31.8307C138.382 31.0707 137.491 29.9889 136.964 28.7222C136.437 27.4555 136.297 26.0609 136.563 24.7148C136.828 23.3687 137.488 22.1317 138.457 21.1604C139.426 20.1891 140.661 19.5271 142.007 19.2583C143.352 18.9895 144.747 19.1258 146.015 19.6502C147.283 20.1745 148.367 21.0632 149.129 22.2038C149.892 23.3444 150.299 24.6856 150.299 26.0577C150.295 27.8926 149.565 29.6514 148.269 30.9503C146.973 32.2493 145.216 32.9831 143.381 32.9915ZM143.381 22.3352C142.64 22.332 141.915 22.549 141.298 22.9586C140.681 23.3681 140.199 23.9518 139.914 24.6356C139.629 25.3194 139.554 26.0724 139.698 26.7991C139.842 27.5257 140.198 28.1934 140.722 28.7172C141.246 29.241 141.913 29.5973 142.64 29.7411C143.367 29.8848 144.12 29.8094 144.803 29.5245C145.487 29.2396 146.071 28.7579 146.48 28.1407C146.89 27.5234 147.107 26.7984 147.104 26.0577C147.104 25.0704 146.712 24.1236 146.013 23.4255C145.315 22.7273 144.369 22.3352 143.381 22.3352Z" fill="#191B1D"/>
<path d="M267.006 78.876C263.494 78.876 260.125 80.2714 257.641 82.7552C255.157 85.239 253.762 88.6079 253.762 92.1205C253.762 99.4537 267.006 125.495 267.006 125.495C267.006 125.495 280.251 99.4537 280.251 92.1205C280.247 88.6091 278.85 85.2428 276.367 82.7599C273.884 80.277 270.518 78.8802 267.006 78.876ZM267.006 97.265C265.951 97.2681 264.918 96.9582 264.039 96.3745C263.16 95.7908 262.473 94.9595 262.066 93.9856C261.66 93.0118 261.551 91.9392 261.754 90.9035C261.956 89.8677 262.462 88.9154 263.206 88.1669C263.95 87.4184 264.899 86.9073 265.934 86.6983C266.968 86.4893 268.041 86.5918 269.018 86.9928C269.994 87.3937 270.829 88.0751 271.418 88.9509C272.007 89.8267 272.323 90.8574 272.326 91.9128C272.329 92.6136 272.193 93.3079 271.926 93.9561C271.66 94.6043 271.269 95.1937 270.775 95.6907C270.281 96.1877 269.694 96.5825 269.047 96.8526C268.4 97.1228 267.707 97.2629 267.006 97.265Z" fill="#FF5B26"/>
<path d="M267.002 127.093C266.707 127.092 266.418 127.01 266.167 126.855C265.916 126.699 265.713 126.478 265.58 126.214C264.206 123.514 252.16 99.6135 252.16 92.1205C252.16 88.1841 253.724 84.4089 256.507 81.6255C259.291 78.842 263.066 77.2783 267.002 77.2783C270.939 77.2783 274.714 78.842 277.497 81.6255C280.281 84.4089 281.844 88.1841 281.844 92.1205C281.844 99.6135 269.798 123.514 268.424 126.214C268.291 126.478 268.088 126.699 267.837 126.855C267.586 127.01 267.297 127.092 267.002 127.093ZM267.002 80.4736C263.915 80.4778 260.955 81.7063 258.771 83.8896C256.588 86.0729 255.36 89.0329 255.355 92.1205C255.355 97.1691 262.785 113.353 267.002 121.917C271.22 113.337 278.649 97.1691 278.649 92.1205C278.645 89.0329 277.417 86.0729 275.233 83.8896C273.05 81.7063 270.09 80.4778 267.002 80.4736ZM267.002 98.8626C265.631 98.8658 264.289 98.4622 263.147 97.7029C262.005 96.9436 261.114 95.8628 260.586 94.597C260.059 93.3312 259.918 91.9374 260.183 90.5918C260.447 89.2461 261.105 88.0091 262.072 87.0372C263.04 86.0652 264.274 85.402 265.618 85.1314C266.962 84.8607 268.357 84.9948 269.625 85.5167C270.893 86.0386 271.978 86.9248 272.743 88.0633C273.507 89.2018 273.917 90.5414 273.92 91.9128C273.92 93.7505 273.192 95.5134 271.896 96.8158C270.6 98.1182 268.84 98.8542 267.002 98.8626ZM267.002 88.2062C266.261 88.2031 265.535 88.4205 264.918 88.8308C264.3 89.2411 263.819 89.8257 263.534 90.5105C263.25 91.1952 263.175 91.949 263.32 92.6761C263.465 93.4032 263.823 94.0708 264.349 94.5939C264.874 95.1171 265.543 95.4722 266.271 95.6141C266.999 95.756 267.752 95.6783 268.436 95.3909C269.119 95.1036 269.702 94.6194 270.109 94.0001C270.517 93.3808 270.731 92.6542 270.725 91.9128C270.731 91.4199 270.64 90.9307 270.455 90.4735C270.271 90.0164 269.998 89.6003 269.652 89.2495C269.305 88.8988 268.893 88.6203 268.438 88.4302C267.983 88.2402 267.495 88.1423 267.002 88.1424V88.2062Z" fill="#191B1D"/>
<path d="M172.389 105.413C168.876 105.413 165.508 106.808 163.024 109.292C160.54 111.776 159.145 115.145 159.145 118.658C159.145 125.991 172.389 152.033 172.389 152.033C172.389 152.033 185.618 125.991 185.618 118.658C185.618 115.148 184.224 111.781 181.744 109.298C179.264 106.815 175.899 105.417 172.389 105.413ZM172.389 123.802C171.332 123.808 170.298 123.501 169.416 122.918C168.534 122.336 167.845 121.505 167.436 120.53C167.028 119.556 166.917 118.482 167.12 117.445C167.322 116.407 167.828 115.454 168.573 114.704C169.318 113.955 170.268 113.443 171.304 113.235C172.34 113.026 173.415 113.13 174.392 113.533C175.369 113.936 176.204 114.62 176.792 115.498C177.379 116.376 177.693 117.409 177.693 118.466C177.689 119.874 177.13 121.224 176.137 122.223C175.144 123.222 173.797 123.789 172.389 123.802Z" fill="#1EB482"/>
<path d="M172.389 153.646C172.091 153.648 171.799 153.567 171.545 153.412C171.291 153.257 171.085 153.034 170.951 152.768C169.577 150.068 157.547 126.167 157.547 118.674C157.482 116.685 157.817 114.703 158.533 112.846C159.249 110.989 160.332 109.296 161.715 107.865C163.099 106.435 164.757 105.298 166.589 104.522C168.421 103.745 170.391 103.345 172.381 103.345C174.371 103.345 176.341 103.745 178.173 104.522C180.006 105.298 181.663 106.435 183.047 107.865C184.431 109.296 185.513 110.989 186.229 112.846C186.945 114.703 187.281 116.685 187.215 118.674C187.215 126.167 175.185 150.068 173.811 152.768C173.678 153.031 173.475 153.253 173.224 153.408C172.973 153.563 172.684 153.645 172.389 153.646ZM172.389 107.027C169.304 107.031 166.347 108.257 164.164 110.437C161.981 112.617 160.751 115.573 160.742 118.658C160.742 123.722 168.171 139.891 172.389 148.454C176.591 139.891 184.02 123.722 184.02 118.658C184.016 115.573 182.79 112.615 180.61 110.433C178.43 108.25 175.474 107.019 172.389 107.011V107.027ZM172.389 125.416C171.016 125.422 169.673 125.021 168.528 124.263C167.384 123.505 166.49 122.424 165.96 121.158C165.431 119.891 165.289 118.496 165.553 117.149C165.817 115.802 166.475 114.563 167.443 113.591C168.411 112.618 169.647 111.954 170.993 111.684C172.339 111.414 173.734 111.549 175.003 112.073C176.272 112.597 177.357 113.486 178.12 114.627C178.884 115.768 179.291 117.109 179.291 118.482C179.283 120.311 178.553 122.064 177.261 123.359C175.969 124.654 174.219 125.387 172.389 125.4V125.416ZM172.389 114.76C171.648 114.753 170.921 114.968 170.302 115.375C169.683 115.783 169.198 116.365 168.911 117.049C168.624 117.732 168.546 118.486 168.688 119.214C168.83 119.941 169.185 120.61 169.708 121.136C170.231 121.661 170.899 122.019 171.626 122.164C172.353 122.309 173.107 122.235 173.792 121.95C174.476 121.666 175.061 121.184 175.471 120.567C175.882 119.949 176.099 119.224 176.096 118.482C176.096 117.496 175.706 116.55 175.012 115.85C174.318 115.15 173.375 114.752 172.389 114.744V114.76Z" fill="#191B1D"/>
<path d="M72.5683 109.248C72.3659 109.248 72.1653 109.21 71.9771 109.136C71.7819 109.058 71.6038 108.943 71.4532 108.797C71.3025 108.65 71.1822 108.476 71.0991 108.283C71.016 108.09 70.9718 107.882 70.9689 107.672C70.966 107.462 71.0046 107.254 71.0825 107.059C71.0825 107.059 71.5458 105.908 72.4245 104.055C72.6094 103.68 72.9344 103.392 73.3294 103.253C73.7244 103.115 74.1579 103.137 74.5368 103.315C74.9156 103.493 75.2095 103.812 75.3553 104.205C75.501 104.597 75.487 105.031 75.3162 105.413C74.4854 107.171 74.0701 108.209 74.0541 108.241C73.9357 108.538 73.7308 108.793 73.4658 108.973C73.2009 109.152 72.8882 109.248 72.5683 109.248Z" fill="#191B1D"/>
<path d="M77.0397 100.252C76.7598 100.254 76.4843 100.183 76.2409 100.045C75.8754 99.834 75.6082 99.4873 75.4974 99.0802C75.3867 98.6732 75.4414 98.2388 75.6497 97.872C76.7841 95.8589 78.0143 93.8459 79.2924 91.9127C79.5287 91.5666 79.8916 91.3272 80.3028 91.2461C80.714 91.165 81.1406 91.2488 81.4907 91.4793C81.8407 91.7099 82.0861 92.0688 82.174 92.4786C82.2619 92.8884 82.1852 93.3164 81.9605 93.6702C80.7143 95.5554 79.532 97.4886 78.4296 99.4377C78.2909 99.6845 78.0891 99.89 77.8449 100.033C77.6007 100.176 77.3228 100.252 77.0397 100.252ZM84.5966 88.7973C84.2465 88.7941 83.906 88.6825 83.622 88.4778C83.4543 88.3494 83.3137 88.1891 83.2084 88.0061C83.103 87.823 83.035 87.6209 83.0083 87.4114C82.9815 87.202 82.9966 86.9892 83.0526 86.7856C83.1086 86.582 83.2044 86.3915 83.3344 86.2251C84.7723 84.3559 86.2581 82.5505 87.7919 80.841C88.0758 80.5253 88.4734 80.3354 88.8974 80.3129C89.3214 80.2904 89.7369 80.4373 90.0526 80.7212C90.3682 81.0051 90.5582 81.4028 90.5807 81.8267C90.6031 82.2507 90.4563 82.6662 90.1724 82.9819C88.7025 84.5795 87.2487 86.3689 85.8587 88.1742C85.7099 88.3676 85.5187 88.5243 85.3 88.6323C85.0812 88.7403 84.8406 88.7967 84.5966 88.7973ZM93.7671 78.6043C93.548 78.6036 93.3315 78.5579 93.1308 78.4699C92.9302 78.382 92.7498 78.2537 92.6008 78.0931C92.3136 77.7833 92.1608 77.3724 92.1758 76.9502C92.1907 76.5281 92.3723 76.129 92.6807 75.8404C94.3837 74.2349 96.1703 72.7204 98.0328 71.3031C98.1893 71.1385 98.3791 71.0091 98.5896 70.9237C98.8 70.8383 99.0263 70.7987 99.2532 70.8076C99.4802 70.8165 99.7026 70.8737 99.9057 70.9753C100.109 71.077 100.288 71.2208 100.431 71.3971C100.574 71.5735 100.678 71.7783 100.736 71.998C100.793 72.2176 100.804 72.4471 100.766 72.671C100.728 72.895 100.643 73.1082 100.516 73.2966C100.389 73.485 100.223 73.6441 100.03 73.7634C98.3044 75.0895 96.5949 76.5593 94.9334 78.109C94.779 78.2581 94.5961 78.3745 94.3958 78.4514C94.1954 78.5283 93.9816 78.564 93.7671 78.5564V78.6043ZM104.663 70.2965C104.39 70.2954 104.122 70.2243 103.884 70.09C103.646 69.9558 103.447 69.7629 103.305 69.5297C103.195 69.3495 103.122 69.1493 103.089 68.9407C103.057 68.732 103.066 68.519 103.117 68.314C103.167 68.109 103.258 67.916 103.384 67.7462C103.509 67.5764 103.667 67.4332 103.848 67.3249C105.863 66.132 107.949 65.0648 110.095 64.1296C110.287 64.0446 110.494 63.9983 110.704 63.9933C110.914 63.9882 111.122 64.0246 111.318 64.1002C111.514 64.1759 111.693 64.2894 111.845 64.4342C111.997 64.5791 112.119 64.7524 112.204 64.9444C112.289 65.1364 112.335 65.3432 112.34 65.5531C112.345 65.7629 112.309 65.9718 112.233 66.1676C112.158 66.3634 112.044 66.5424 111.899 66.6944C111.755 66.8464 111.581 66.9683 111.389 67.0533C109.36 67.954 107.391 68.984 105.494 70.1367C105.235 70.2588 104.949 70.3137 104.663 70.2965ZM117.189 64.7687C116.979 64.798 116.765 64.7858 116.56 64.7326C116.355 64.6795 116.163 64.5865 115.993 64.4589C115.652 64.2012 115.427 63.8184 115.367 63.3947C115.308 62.9709 115.419 62.541 115.677 62.1994C115.935 61.8579 116.318 61.6327 116.741 61.5734C119.004 60.8895 121.31 60.3558 123.643 59.9757C124.067 59.9143 124.498 60.0237 124.841 60.2798C125.184 60.536 125.411 60.918 125.472 61.3417C125.534 61.7654 125.425 62.1962 125.168 62.5393C124.912 62.8823 124.53 63.1096 124.106 63.171C121.946 63.4966 119.811 63.9717 117.716 64.5929C117.552 64.6818 117.373 64.7413 117.189 64.7687Z" fill="#191B1D"/>
<path d="M133.933 62.8354H133.853C132.799 62.8354 131.776 62.8354 130.754 62.8354C130.33 62.8354 129.924 62.6671 129.624 62.3675C129.325 62.0679 129.156 61.6615 129.156 61.2378C129.156 60.8141 129.325 60.4077 129.624 60.1081C129.924 59.8085 130.33 59.6401 130.754 59.6401C131.84 59.6401 132.927 59.6401 134.045 59.6401C134.455 59.6606 134.841 59.838 135.123 60.1354C135.406 60.4328 135.563 60.8275 135.563 61.2378C135.563 61.4503 135.521 61.6607 135.438 61.8567C135.356 62.0526 135.235 62.2302 135.084 62.3789C134.932 62.5277 134.752 62.6447 134.554 62.7231C134.357 62.8015 134.146 62.8397 133.933 62.8354Z" fill="#191B1D"/>
<path d="M66.1469 61.0942C62.6342 61.0942 59.2654 62.4896 56.7816 64.9735C54.2977 67.4573 52.9023 70.8261 52.9023 74.3388C52.9023 81.672 66.1469 107.714 66.1469 107.714C66.1469 107.714 79.3914 81.672 79.3914 74.3388C79.3872 70.8274 77.9904 67.4611 75.5075 64.9781C73.0246 62.4952 69.6582 61.0985 66.1469 61.0942ZM66.1469 79.4832C65.0908 79.4864 64.0575 79.1761 63.1779 78.5917C62.2983 78.0073 61.6119 77.175 61.2055 76.2002C60.7992 75.2254 60.6912 74.152 60.8953 73.1158C61.0994 72.0797 61.6064 71.1274 62.352 70.3795C63.0976 69.6316 64.0484 69.1218 65.084 68.9146C66.1195 68.7074 67.1933 68.8122 68.1693 69.2156C69.1452 69.619 69.9796 70.3029 70.5666 71.1808C71.1537 72.0587 71.467 73.091 71.467 74.1471C71.467 75.5595 70.9071 76.9144 69.9098 77.9146C68.9125 78.9149 67.5593 79.479 66.1469 79.4832Z" fill="#FF5B26"/>
<path d="M66.1469 109.311C65.8535 109.312 65.5656 109.232 65.3148 109.08C65.064 108.927 64.8599 108.709 64.7249 108.449C63.351 105.749 51.3047 81.8317 51.3047 74.3388C51.3047 72.3897 51.6886 70.4596 52.4345 68.6589C53.1804 66.8582 54.2736 65.222 55.6519 63.8438C57.0301 62.4655 58.6663 61.3723 60.467 60.6264C62.2677 59.8805 64.1978 59.4966 66.1469 59.4966C68.096 59.4966 70.026 59.8805 71.8267 60.6264C73.6274 61.3723 75.2637 62.4655 76.6419 63.8438C78.0201 65.222 79.1134 66.8582 79.8593 68.6589C80.6052 70.4596 80.989 72.3897 80.989 74.3388C80.989 81.8317 68.9427 105.749 67.5688 108.449C67.4338 108.709 67.2298 108.927 66.9789 109.08C66.7281 109.232 66.4402 109.312 66.1469 109.311ZM66.1469 62.6919C63.0592 62.6961 60.0992 63.9245 57.9159 66.1078C55.7326 68.2911 54.5042 71.2511 54.5 74.3388C54.5 79.4033 61.9291 95.5715 66.1469 104.135C70.3487 95.5715 77.7937 79.4033 77.7937 74.3388C77.7895 71.2511 76.5611 68.2911 74.3778 66.1078C72.1945 63.9245 69.2345 62.6961 66.1469 62.6919ZM66.1469 81.0809C64.7748 81.084 63.4327 80.68 62.2903 79.9201C61.148 79.1601 60.2567 78.0783 59.7295 76.8116C59.2022 75.5449 59.0626 74.1502 59.3284 72.8042C59.5941 71.4581 60.2532 70.2211 61.2223 69.2498C62.1914 68.2785 63.4268 67.6165 64.7723 67.3477C66.1178 67.0788 67.5127 67.2152 68.7806 67.7395C70.0485 68.2639 71.1324 69.1526 71.895 70.2932C72.6576 71.4338 73.0647 72.775 73.0647 74.1471C73.0647 75.9832 72.3364 77.7445 71.0395 79.0443C69.7426 80.3442 67.983 81.0766 66.1469 81.0809ZM66.1469 70.4245C65.4061 70.4214 64.6811 70.6383 64.0639 71.0479C63.4466 71.4575 62.965 72.0412 62.6801 72.725C62.3951 73.4087 62.3197 74.1617 62.4635 74.8884C62.6072 75.6151 62.9636 76.2827 63.4874 76.8065C64.0112 77.3303 64.6788 77.6867 65.4055 77.8304C66.1322 77.9742 66.8852 77.8988 67.569 77.6139C68.2527 77.3289 68.8364 76.8473 69.246 76.23C69.6556 75.6128 69.8725 74.8878 69.8694 74.1471C69.8694 73.6582 69.7731 73.1741 69.586 72.7225C69.399 72.2708 69.1248 71.8605 68.7791 71.5148C68.4334 71.1691 68.0231 70.8949 67.5714 70.7079C67.1198 70.5208 66.6357 70.4245 66.1469 70.4245Z" fill="#191B1D"/>
<path d="M162.708 149.093C162.396 149.095 162.091 149.006 161.829 148.837C159.976 147.623 158.186 146.377 156.509 145.115C156.341 144.989 156.2 144.831 156.093 144.65C155.986 144.47 155.916 144.27 155.886 144.062C155.856 143.855 155.868 143.643 155.92 143.44C155.972 143.237 156.063 143.046 156.189 142.878C156.315 142.71 156.473 142.569 156.653 142.462C156.834 142.355 157.034 142.284 157.241 142.255C157.449 142.225 157.661 142.237 157.864 142.289C158.067 142.341 158.258 142.432 158.426 142.558C160.024 143.772 161.781 144.987 163.57 146.153C163.86 146.34 164.081 146.615 164.201 146.938C164.321 147.261 164.334 147.614 164.237 147.945C164.14 148.276 163.938 148.566 163.663 148.773C163.387 148.98 163.052 149.092 162.708 149.093ZM152.499 141.424C152.11 141.423 151.736 141.281 151.444 141.025C149.847 139.587 148.249 138.069 146.651 136.551C146.486 136.405 146.353 136.227 146.261 136.028C146.168 135.828 146.117 135.612 146.112 135.392C146.107 135.172 146.147 134.953 146.23 134.75C146.313 134.546 146.438 134.362 146.596 134.208C146.753 134.055 146.941 133.936 147.147 133.858C147.353 133.781 147.573 133.747 147.792 133.758C148.012 133.77 148.227 133.827 148.424 133.925C148.621 134.023 148.795 134.161 148.936 134.33C150.358 135.784 151.876 137.222 153.489 138.628C153.733 138.843 153.905 139.126 153.983 139.441C154.061 139.756 154.042 140.087 153.927 140.39C153.813 140.694 153.609 140.955 153.342 141.14C153.076 141.324 152.759 141.423 152.435 141.424H152.499ZM143.616 132.253C143.377 132.254 143.141 132.202 142.926 132.099C142.71 131.997 142.52 131.848 142.37 131.662C140.996 129.937 139.702 128.147 138.535 126.358C138.304 126.002 138.224 125.569 138.313 125.154C138.401 124.739 138.651 124.376 139.007 124.145C139.362 123.914 139.796 123.834 140.211 123.923C140.626 124.011 140.988 124.261 141.219 124.617C142.322 126.326 143.552 128.02 144.862 129.665C145.048 129.9 145.164 130.183 145.196 130.48C145.229 130.778 145.178 131.079 145.048 131.349C144.918 131.619 144.715 131.847 144.462 132.007C144.208 132.167 143.915 132.252 143.616 132.253ZM136.778 121.533C136.48 121.535 136.188 121.454 135.934 121.299C135.68 121.144 135.474 120.92 135.34 120.654C134.367 118.692 133.509 116.676 132.768 114.615C132.637 114.22 132.666 113.79 132.848 113.416C133.03 113.042 133.35 112.754 133.741 112.612C134.133 112.471 134.563 112.487 134.942 112.659C135.322 112.83 135.619 113.142 135.771 113.529C136.471 115.475 137.282 117.379 138.2 119.233C138.389 119.61 138.422 120.047 138.29 120.448C138.158 120.849 137.873 121.182 137.497 121.373C137.273 121.482 137.027 121.537 136.778 121.533ZM132.464 109.535C132.097 109.545 131.738 109.428 131.447 109.204C131.156 108.98 130.951 108.662 130.867 108.305C130.37 106.166 130.002 104 129.764 101.818C129.718 101.394 129.841 100.97 130.108 100.637C130.374 100.304 130.762 100.091 131.186 100.045C131.61 99.9982 132.035 100.122 132.367 100.388C132.7 100.655 132.913 101.043 132.959 101.467C133.184 103.525 133.53 105.568 133.998 107.586C134.045 107.79 134.052 108.002 134.017 108.209C133.983 108.416 133.907 108.615 133.796 108.793C133.685 108.971 133.54 109.125 133.369 109.247C133.198 109.369 133.004 109.456 132.8 109.503C132.669 109.532 132.534 109.543 132.4 109.535H132.464ZM131.074 96.8655C130.65 96.8655 130.244 96.6971 129.945 96.3975C129.645 96.0979 129.477 95.6915 129.477 95.2678C129.48 93.0793 129.603 90.8926 129.844 88.7174C129.867 88.5076 129.931 88.3044 130.033 88.1194C130.135 87.9344 130.272 87.7712 130.436 87.6392C130.601 87.5071 130.79 87.4089 130.993 87.3499C131.195 87.2909 131.408 87.2724 131.617 87.2955C131.827 87.3186 132.03 87.3828 132.215 87.4844C132.4 87.586 132.564 87.723 132.696 87.8877C132.828 88.0524 132.926 88.2415 132.985 88.4442C133.044 88.6468 133.062 88.8591 133.039 89.0689C132.817 91.1278 132.705 93.197 132.704 95.2678C132.704 95.4859 132.66 95.7018 132.574 95.9022C132.488 96.1025 132.361 96.2831 132.203 96.4328C132.044 96.5825 131.856 96.6981 131.651 96.7725C131.446 96.8469 131.228 96.8785 131.01 96.8655H131.074ZM132.432 84.1801H132.097C131.891 84.1365 131.696 84.0526 131.522 83.9334C131.349 83.8141 131.201 83.6617 131.087 83.4851C130.972 83.3084 130.894 83.111 130.856 82.904C130.818 82.697 130.822 82.4845 130.867 82.2789C131.29 80.1229 131.823 77.9899 132.464 75.8883C132.599 75.4956 132.881 75.1707 133.251 74.9825C133.621 74.7943 134.05 74.7576 134.447 74.8802C134.844 75.0027 135.177 75.2749 135.377 75.639C135.576 76.0031 135.626 76.4306 135.516 76.8309C134.893 78.828 134.381 80.857 133.918 82.87C133.851 83.2341 133.661 83.5638 133.378 83.8027C133.095 84.0416 132.738 84.175 132.368 84.1801H132.432ZM136.171 71.9741C135.962 71.9685 135.757 71.9252 135.564 71.8462C135.175 71.6837 134.866 71.3742 134.705 70.9853C134.543 70.5963 134.542 70.1593 134.701 69.7693C135.529 67.7149 136.484 65.714 137.561 63.7781C137.793 63.4582 138.136 63.236 138.523 63.1545C138.91 63.0729 139.314 63.1378 139.656 63.3366C139.998 63.5354 140.254 63.854 140.374 64.2306C140.495 64.6073 140.472 65.0153 140.309 65.3757C139.309 67.177 138.423 69.0393 137.657 70.9516C137.537 71.2622 137.323 71.5277 137.045 71.711C136.768 71.8943 136.439 71.9863 136.107 71.9741H136.171Z" fill="#191B1D"/>
<path d="M182.1 148.709C181.957 148.732 181.812 148.732 181.669 148.709C181.263 148.594 180.919 148.322 180.712 147.954C180.506 147.586 180.453 147.151 180.566 146.744C181.226 144.617 182.038 142.54 182.995 140.529C183.172 140.147 183.493 139.85 183.888 139.704C184.283 139.557 184.72 139.572 185.104 139.746C185.295 139.834 185.467 139.959 185.61 140.113C185.753 140.268 185.864 140.449 185.937 140.646C186.009 140.844 186.042 141.053 186.034 141.264C186.025 141.474 185.975 141.68 185.886 141.871C185.002 143.726 184.254 145.643 183.65 147.607C183.544 147.932 183.336 148.215 183.057 148.414C182.778 148.612 182.442 148.716 182.1 148.709ZM187.436 137.094C187.148 137.089 186.866 137.007 186.621 136.855C186.26 136.636 185.999 136.283 185.898 135.872C185.796 135.462 185.861 135.028 186.078 134.666C187.215 132.788 188.464 130.979 189.817 129.25C189.939 129.067 190.098 128.912 190.283 128.793C190.468 128.675 190.676 128.596 190.893 128.561C191.11 128.526 191.332 128.537 191.544 128.592C191.757 128.647 191.957 128.745 192.13 128.881C192.303 129.017 192.446 129.186 192.55 129.38C192.655 129.573 192.718 129.786 192.736 130.005C192.755 130.224 192.728 130.445 192.657 130.653C192.586 130.861 192.473 131.052 192.325 131.215C191.052 132.847 189.878 134.554 188.81 136.327C188.667 136.563 188.465 136.757 188.224 136.892C187.983 137.026 187.712 137.096 187.436 137.094ZM195.329 127.061C195.117 127.06 194.908 127.017 194.713 126.935C194.519 126.853 194.342 126.733 194.194 126.582C193.897 126.282 193.73 125.877 193.73 125.455C193.73 125.033 193.897 124.628 194.194 124.329C195.774 122.777 197.473 121.351 199.275 120.063C199.446 119.942 199.639 119.855 199.844 119.808C200.048 119.761 200.26 119.755 200.467 119.789C200.674 119.824 200.872 119.9 201.05 120.011C201.228 120.122 201.382 120.268 201.504 120.439C201.625 120.61 201.712 120.803 201.759 121.008C201.806 121.212 201.812 121.424 201.777 121.631C201.743 121.838 201.667 122.036 201.556 122.214C201.444 122.392 201.299 122.546 201.128 122.668C199.431 123.858 197.829 125.177 196.335 126.614C196.063 126.877 195.707 127.036 195.329 127.061ZM260.832 124.505C260.459 124.506 260.097 124.376 259.81 124.137C258.244 122.867 256.546 121.769 254.745 120.862C254.538 120.78 254.35 120.656 254.193 120.497C254.037 120.338 253.915 120.148 253.837 119.939C253.758 119.73 253.724 119.507 253.737 119.284C253.75 119.062 253.809 118.844 253.911 118.646C254.013 118.447 254.155 118.272 254.329 118.132C254.503 117.992 254.704 117.89 254.919 117.833C255.135 117.775 255.36 117.763 255.581 117.798C255.801 117.833 256.012 117.913 256.199 118.034C258.216 119.036 260.114 120.264 261.855 121.693C262.017 121.827 262.15 121.992 262.248 122.178C262.346 122.364 262.407 122.567 262.426 122.776C262.445 122.985 262.423 123.196 262.361 123.397C262.298 123.598 262.197 123.784 262.062 123.946C261.904 124.132 261.705 124.279 261.48 124.376C261.256 124.473 261.012 124.517 260.768 124.505H260.832ZM205.777 119.712C205.415 119.713 205.063 119.592 204.779 119.367C204.495 119.142 204.296 118.828 204.214 118.475C204.132 118.122 204.173 117.752 204.329 117.425C204.486 117.098 204.748 116.834 205.074 116.676C207.075 115.71 209.154 114.913 211.289 114.296C211.492 114.237 211.704 114.22 211.913 114.243C212.122 114.267 212.325 114.332 212.509 114.435C212.693 114.537 212.855 114.675 212.986 114.84C213.117 115.006 213.213 115.195 213.27 115.398C213.383 115.805 213.331 116.24 213.124 116.608C212.918 116.976 212.574 117.248 212.168 117.363C210.214 117.931 208.311 118.663 206.48 119.552C206.242 119.668 205.978 119.723 205.713 119.712H205.777ZM249.585 118.578C249.412 118.573 249.24 118.546 249.074 118.498C247.114 117.852 245.119 117.319 243.098 116.9C242.715 116.784 242.39 116.529 242.186 116.185C241.982 115.841 241.914 115.433 241.996 115.042C242.079 114.65 242.305 114.304 242.63 114.071C242.956 113.838 243.356 113.736 243.753 113.785C245.916 114.224 248.051 114.795 250.144 115.494C250.568 115.562 250.947 115.795 251.199 116.143C251.451 116.49 251.554 116.924 251.486 117.347C251.418 117.771 251.185 118.151 250.837 118.402C250.49 118.654 250.057 118.757 249.633 118.689L249.585 118.578ZM217.999 116.181C217.576 116.209 217.158 116.067 216.839 115.787C216.52 115.506 216.325 115.111 216.298 114.687C216.27 114.264 216.412 113.846 216.692 113.527C216.972 113.208 217.368 113.013 217.792 112.986C219.98 112.73 222.153 112.538 224.182 112.427C224.392 112.416 224.602 112.447 224.8 112.518C224.998 112.588 225.18 112.697 225.335 112.838C225.491 112.979 225.618 113.149 225.708 113.339C225.798 113.529 225.849 113.735 225.86 113.944C225.87 114.154 225.839 114.364 225.769 114.562C225.698 114.76 225.589 114.942 225.448 115.097C225.307 115.253 225.137 115.38 224.947 115.47C224.757 115.56 224.552 115.611 224.342 115.622C222.313 115.734 220.22 115.909 218.095 116.149L217.999 116.181ZM237.171 115.925H236.995C234.982 115.718 232.889 115.59 230.749 115.542C230.325 115.542 229.918 115.374 229.619 115.074C229.319 114.774 229.151 114.368 229.151 113.944C229.151 113.521 229.319 113.114 229.619 112.815C229.918 112.515 230.325 112.347 230.749 112.347C232.953 112.347 235.158 112.538 237.251 112.762C237.675 112.783 238.073 112.972 238.357 113.287C238.642 113.601 238.79 114.016 238.769 114.44C238.748 114.863 238.559 115.261 238.244 115.546C237.93 115.831 237.515 115.979 237.091 115.957L237.171 115.925Z" fill="#191B1D"/>
<path d="M249.172 158.392H194.645V209.261H249.172V158.392Z" fill="white"/>
<path d="M249.188 210.858H194.645C194.221 210.858 193.814 210.69 193.515 210.39C193.215 210.09 193.047 209.684 193.047 209.26V158.439C193.047 158.015 193.215 157.609 193.515 157.309C193.814 157.01 194.221 156.841 194.645 156.841H249.188C249.612 156.841 250.018 157.01 250.318 157.309C250.618 157.609 250.786 158.015 250.786 158.439V209.308C250.773 209.724 250.6 210.118 250.301 210.407C250.003 210.696 249.604 210.858 249.188 210.858ZM196.242 207.663H247.591V160.037H196.242V207.663Z" fill="#191B1D"/>
<path d="M240.131 171.972H211.98C211.557 171.972 211.15 171.803 210.851 171.504C210.551 171.204 210.383 170.798 210.383 170.374C210.383 169.95 210.551 169.544 210.851 169.244C211.15 168.945 211.557 168.776 211.98 168.776H240.131C240.555 168.776 240.961 168.945 241.261 169.244C241.56 169.544 241.729 169.95 241.729 170.374C241.729 170.798 241.56 171.204 241.261 171.504C240.961 171.803 240.555 171.972 240.131 171.972Z" fill="#DFEAEF"/>
<path d="M240.128 181.397H232.875C232.451 181.397 232.045 181.229 231.745 180.93C231.446 180.63 231.277 180.224 231.277 179.8C231.277 179.376 231.446 178.97 231.745 178.67C232.045 178.37 232.451 178.202 232.875 178.202H240.128C240.552 178.202 240.958 178.37 241.258 178.67C241.558 178.97 241.726 179.376 241.726 179.8C241.726 180.224 241.558 180.63 241.258 180.93C240.958 181.229 240.552 181.397 240.128 181.397Z" fill="#DFEAEF"/>
<path d="M223.961 181.397H203.719C203.295 181.397 202.889 181.229 202.589 180.93C202.289 180.63 202.121 180.224 202.121 179.8C202.121 179.376 202.289 178.97 202.589 178.67C202.889 178.37 203.295 178.202 203.719 178.202H223.961C224.385 178.202 224.791 178.37 225.091 178.67C225.39 178.97 225.559 179.376 225.559 179.8C225.559 180.224 225.39 180.63 225.091 180.93C224.791 181.229 224.385 181.397 223.961 181.397Z" fill="#DFEAEF"/>
<path d="M240.129 190.824H203.719C203.295 190.824 202.889 190.655 202.589 190.356C202.289 190.056 202.121 189.65 202.121 189.226C202.121 188.802 202.289 188.396 202.589 188.096C202.889 187.797 203.295 187.628 203.719 187.628H240.129C240.553 187.628 240.959 187.797 241.259 188.096C241.559 188.396 241.727 188.802 241.727 189.226C241.727 189.65 241.559 190.056 241.259 190.356C240.959 190.655 240.553 190.824 240.129 190.824Z" fill="#DFEAEF"/>
<path d="M227.22 200.25H203.719C203.295 200.25 202.889 200.082 202.589 199.782C202.289 199.482 202.121 199.076 202.121 198.652C202.121 198.229 202.289 197.822 202.589 197.523C202.889 197.223 203.295 197.055 203.719 197.055H227.22C227.644 197.055 228.05 197.223 228.35 197.523C228.65 197.822 228.818 198.229 228.818 198.652C228.818 199.076 228.65 199.482 228.35 199.782C228.05 200.082 227.644 200.25 227.22 200.25Z" fill="#DFEAEF"/>
<path d="M221.915 163.584C224.783 163.584 227.107 161.259 227.107 158.392C227.107 155.524 224.783 153.199 221.915 153.199C219.047 153.199 216.723 155.524 216.723 158.392C216.723 161.259 219.047 163.584 221.915 163.584Z" fill="#FF5B26"/>
<path d="M221.915 165.182C220.572 165.182 219.259 164.783 218.143 164.037C217.026 163.291 216.156 162.231 215.642 160.99C215.128 159.749 214.993 158.384 215.255 157.067C215.517 155.75 216.164 154.54 217.114 153.59C218.063 152.641 219.273 151.994 220.59 151.732C221.907 151.47 223.273 151.605 224.513 152.118C225.754 152.632 226.815 153.503 227.561 154.619C228.307 155.736 228.705 157.049 228.705 158.392C228.705 160.192 227.99 161.919 226.716 163.193C225.443 164.466 223.716 165.182 221.915 165.182ZM221.915 154.797C221.204 154.797 220.509 155.008 219.918 155.403C219.327 155.798 218.866 156.359 218.594 157.016C218.322 157.673 218.251 158.396 218.389 159.093C218.528 159.79 218.87 160.431 219.373 160.933C219.876 161.436 220.516 161.779 221.214 161.917C221.911 162.056 222.634 161.985 223.291 161.713C223.948 161.441 224.509 160.98 224.904 160.389C225.299 159.798 225.51 159.103 225.51 158.392C225.51 157.438 225.131 156.524 224.457 155.85C223.783 155.176 222.868 154.797 221.915 154.797Z" fill="#191B1D"/>
<path d="M258.551 6.29492H209.344V52.1954H258.551V6.29492Z" fill="white"/>
<path d="M258.555 53.7931H209.348C208.924 53.7931 208.518 53.6248 208.218 53.3251C207.918 53.0255 207.75 52.6192 207.75 52.1954V6.29492C207.75 5.87119 207.918 5.46484 208.218 5.16522C208.518 4.8656 208.924 4.69727 209.348 4.69727H258.555C258.979 4.69727 259.385 4.8656 259.685 5.16522C259.985 5.46484 260.153 5.87119 260.153 6.29492V52.1954C260.153 52.6192 259.985 53.0255 259.685 53.3251C259.385 53.6248 258.979 53.7931 258.555 53.7931ZM210.945 50.5978H256.958V7.89257H210.945V50.5978Z" fill="#191B1D"/>
<path d="M250.374 21.6006H221.84C221.416 21.6006 221.01 21.4323 220.71 21.1326C220.411 20.833 220.242 20.4266 220.242 20.0029C220.242 19.5792 220.411 19.1728 220.71 18.8732C221.01 18.5736 221.416 18.4053 221.84 18.4053H250.374C250.798 18.4053 251.204 18.5736 251.504 18.8732C251.803 19.1728 251.972 19.5792 251.972 20.0029C251.972 20.4266 251.803 20.833 251.504 21.1326C251.204 21.4323 250.798 21.6006 250.374 21.6006Z" fill="#DFEAEF"/>
<path d="M250.375 32.9111H237.434C237.01 32.9111 236.603 32.7428 236.304 32.4432C236.004 32.1436 235.836 31.7372 235.836 31.3135C235.836 30.8897 236.004 30.4834 236.304 30.1838C236.603 29.8841 237.01 29.7158 237.434 29.7158H250.454C250.878 29.7158 251.285 29.8841 251.584 30.1838C251.884 30.4834 252.052 30.8897 252.052 31.3135C252.052 31.7372 251.884 32.1436 251.584 32.4432C251.285 32.7428 250.878 32.9111 250.454 32.9111H250.375Z" fill="#DFEAEF"/>
<path d="M228.132 32.9111H217.523C217.1 32.9111 216.693 32.7428 216.394 32.4432C216.094 32.1436 215.926 31.7372 215.926 31.3135C215.926 30.8897 216.094 30.4834 216.394 30.1838C216.693 29.8841 217.1 29.7158 217.523 29.7158H228.132C228.556 29.7158 228.962 29.8841 229.262 30.1838C229.561 30.4834 229.729 30.8897 229.729 31.3135C229.729 31.7372 229.561 32.1436 229.262 32.4432C228.962 32.7428 228.556 32.9111 228.132 32.9111Z" fill="#DFEAEF"/>
<path d="M238.74 44.2231H217.523C217.1 44.2231 216.693 44.0548 216.394 43.7552C216.094 43.4556 215.926 43.0492 215.926 42.6255C215.926 42.2018 216.094 41.7954 216.394 41.4958C216.693 41.1962 217.1 41.0278 217.523 41.0278H238.74C239.164 41.0278 239.57 41.1962 239.87 41.4958C240.17 41.7954 240.338 42.2018 240.338 42.6255C240.338 43.0492 240.17 43.4556 239.87 43.7552C239.57 44.0548 239.164 44.2231 238.74 44.2231Z" fill="#DFEAEF"/>
<path d="M233.947 10.9918C236.541 10.9918 238.644 8.88888 238.644 6.29474C238.644 3.70061 236.541 1.59766 233.947 1.59766C231.353 1.59766 229.25 3.70061 229.25 6.29474C229.25 8.88888 231.353 10.9918 233.947 10.9918Z" fill="#FF5B26"/>
<path d="M233.947 12.5895C232.702 12.5895 231.485 12.2203 230.45 11.5286C229.415 10.837 228.608 9.85385 228.132 8.70364C227.655 7.55342 227.53 6.28776 227.773 5.0667C228.016 3.84564 228.616 2.72403 229.496 1.84369C230.376 0.963356 231.498 0.36384 232.719 0.120956C233.94 -0.121928 235.206 0.00272312 236.356 0.479157C237.506 0.955592 238.489 1.76241 239.181 2.79757C239.873 3.83274 240.242 5.04976 240.242 6.29474C240.238 7.96291 239.573 9.56156 238.393 10.7411C237.214 11.9207 235.615 12.5853 233.947 12.5895ZM233.947 3.21127C233.333 3.21128 232.734 3.39348 232.223 3.73476C231.713 4.07604 231.316 4.56106 231.082 5.12834C230.848 5.69562 230.788 6.31963 230.908 6.9213C231.029 7.52296 231.326 8.07519 231.761 8.50801C232.196 8.94084 232.75 9.23477 233.352 9.35255C233.955 9.47033 234.578 9.40667 235.144 9.16963C235.71 8.93259 236.193 8.53283 236.532 8.02104C236.871 7.50924 237.05 6.90842 237.047 6.29474C237.042 5.47549 236.714 4.69123 236.133 4.11343C235.552 3.53562 234.766 3.21126 233.947 3.21127Z" fill="#191B1D"/>
<path d="M111.891 133.867H69.9844V172.962H111.891V133.867Z" fill="white"/>
<path d="M111.891 174.543H69.9844C69.5606 174.543 69.1543 174.375 68.8547 174.075C68.555 173.776 68.3867 173.369 68.3867 172.946V133.867C68.3867 133.443 68.555 133.037 68.8547 132.737C69.1543 132.438 69.5606 132.27 69.9844 132.27H111.891C112.314 132.27 112.721 132.438 113.02 132.737C113.32 133.037 113.488 133.443 113.488 133.867V172.946C113.488 173.369 113.32 173.776 113.02 174.075C112.721 174.375 112.314 174.543 111.891 174.543ZM71.582 171.348H110.293V135.465H71.582V171.348Z" fill="#191B1D"/>
<path d="M104.917 147.128H80.6172C80.1935 147.128 79.7871 146.96 79.4875 146.66C79.1879 146.36 79.0195 145.954 79.0195 145.53C79.0195 145.107 79.1879 144.7 79.4875 144.401C79.7871 144.101 80.1935 143.933 80.6172 143.933H104.917C105.341 143.933 105.748 144.101 106.047 144.401C106.347 144.7 106.515 145.107 106.515 145.53C106.515 145.954 106.347 146.36 106.047 146.66C105.748 146.96 105.341 147.128 104.917 147.128Z" fill="#DFEAEF"/>
<path d="M104.92 156.842H93.832C93.4083 156.842 93.0019 156.673 92.7023 156.374C92.4027 156.074 92.2344 155.668 92.2344 155.244C92.2344 154.82 92.4027 154.414 92.7023 154.114C93.0019 153.815 93.4083 153.646 93.832 153.646H104.92C105.343 153.646 105.75 153.815 106.049 154.114C106.349 154.414 106.517 154.82 106.517 155.244C106.517 155.668 106.349 156.074 106.049 156.374C105.75 156.673 105.343 156.842 104.92 156.842Z" fill="#DFEAEF"/>
<path d="M85.988 156.842H76.9453C76.5216 156.842 76.1152 156.673 75.8156 156.374C75.516 156.074 75.3477 155.668 75.3477 155.244C75.3477 154.82 75.516 154.414 75.8156 154.114C76.1152 153.815 76.5216 153.646 76.9453 153.646H85.988C86.4117 153.646 86.8181 153.815 87.1177 154.114C87.4173 154.414 87.5857 154.82 87.5857 155.244C87.5857 155.668 87.4173 156.074 87.1177 156.374C86.8181 156.673 86.4117 156.842 85.988 156.842Z" fill="#DFEAEF"/>
<path d="M95.0147 166.428H76.9453C76.5216 166.428 76.1152 166.259 75.8156 165.96C75.516 165.66 75.3477 165.254 75.3477 164.83C75.3477 164.406 75.516 164 75.8156 163.7C76.1152 163.401 76.5216 163.232 76.9453 163.232H95.0147C95.4385 163.232 95.8448 163.401 96.1444 163.7C96.4441 164 96.6124 164.406 96.6124 164.83C96.6124 165.254 96.4441 165.66 96.1444 165.96C95.8448 166.259 95.4385 166.428 95.0147 166.428Z" fill="#DFEAEF"/>
<path d="M90.9394 137.861C93.1453 137.861 94.9336 136.073 94.9336 133.867C94.9336 131.661 93.1453 129.873 90.9394 129.873C88.7335 129.873 86.9453 131.661 86.9453 133.867C86.9453 136.073 88.7335 137.861 90.9394 137.861Z" fill="#FF5B26"/>
<path d="M90.9394 139.459C89.8335 139.459 88.7524 139.131 87.8328 138.517C86.9133 137.902 86.1965 137.029 85.7733 136.007C85.3501 134.985 85.2393 133.861 85.4551 132.776C85.6709 131.692 86.2034 130.695 86.9855 129.913C87.7675 129.131 88.7638 128.599 89.8485 128.383C90.9332 128.167 92.0576 128.278 93.0793 128.701C94.1011 129.124 94.9744 129.841 95.5888 130.761C96.2033 131.68 96.5312 132.761 96.5312 133.867C96.5312 135.35 95.9421 136.772 94.8934 137.821C93.8447 138.87 92.4225 139.459 90.9394 139.459ZM90.9394 131.471C90.4654 131.471 90.0021 131.611 89.608 131.875C89.2139 132.138 88.9068 132.512 88.7254 132.95C88.544 133.388 88.4965 133.87 88.589 134.335C88.6815 134.8 88.9097 135.227 89.2449 135.562C89.58 135.897 90.007 136.125 90.4719 136.218C90.9368 136.31 91.4186 136.263 91.8565 136.081C92.2944 135.9 92.6687 135.593 92.932 135.199C93.1954 134.804 93.3359 134.341 93.3359 133.867C93.3359 133.232 93.0834 132.622 92.634 132.173C92.1846 131.723 91.575 131.471 90.9394 131.471Z" fill="#191B1D"/>
</svg>
