<?xml version="1.0" standalone="no"?>
<!DOCTYPE svg PUBLIC "-//W3C//DTD SVG 20010904//EN"
 "http://www.w3.org/TR/2001/REC-SVG-20010904/DTD/svg10.dtd">
<svg version="1.0" xmlns="http://www.w3.org/2000/svg"
 width="1024.000000pt" height="1034.000000pt" viewBox="0 0 1024.000000 1034.000000"
 preserveAspectRatio="xMidYMid meet">

<g transform="translate(0.000000,1034.000000) scale(0.100000,-0.100000)"
fill="#000000" stroke="none">
<path d="M5000 9034 c-340 -22 -608 -75 -876 -174 -698 -259 -1252 -777 -1559
-1460 -104 -230 -192 -552 -226 -825 -20 -155 -17 -516 4 -655 68 -434 160
-725 352 -1105 281 -555 668 -1115 1269 -1835 289 -346 757 -861 992 -1091
168 -164 176 -163 390 53 510 517 1124 1233 1509 1759 289 397 369 517 541
816 283 491 432 899 500 1368 25 168 25 580 1 755 -117 835 -597 1565 -1313
1997 -343 208 -739 339 -1149 382 -107 11 -357 20 -435 15z m470 -339 c719
-96 1343 -491 1743 -1102 117 -180 181 -315 263 -555 83 -243 112 -391 123
-632 23 -532 -101 -1043 -381 -1561 -393 -730 -900 -1394 -1912 -2508 -174
-192 -180 -197 -199 -180 -25 23 -340 370 -488 538 -641 728 -958 1133 -1292
1651 -367 571 -543 961 -632 1407 -47 236 -59 377 -52 582 17 452 139 866 359
1210 203 319 432 553 737 756 351 234 721 362 1176 409 116 11 420 4 555 -15z"/>
<path d="M4824 8274 c-663 -90 -1257 -519 -1549 -1119 -348 -714 -273 -1536
195 -2161 137 -184 356 -384 549 -504 370 -230 830 -343 1254 -310 566 44
1085 310 1428 732 194 239 312 455 388 712 77 260 112 554 91 765 -31 313
-127 633 -258 860 -285 493 -753 848 -1296 981 -70 17 -176 38 -235 45 -133
18 -432 18 -567 -1z m601 -319 c329 -59 619 -202 872 -428 261 -232 416 -485
507 -824 53 -197 61 -258 61 -478 0 -172 -3 -215 -24 -310 -52 -244 -154 -488
-287 -685 -68 -102 -89 -130 -95 -130 -2 0 -5 196 -7 436 -2 477 -3 478 -62
509 -38 20 -95 19 -131 -2 -52 -31 -59 -62 -59 -266 l0 -184 -293 1 c-325 1
-326 1 -368 -67 -18 -30 -19 -48 -17 -324 3 -278 4 -293 24 -320 48 -64 146
-61 191 6 22 33 23 41 23 252 l0 219 220 0 220 0 0 -253 0 -253 -95 -63 c-139
-92 -281 -161 -440 -213 -219 -73 -285 -83 -535 -82 -194 0 -227 3 -343 27
-237 50 -459 141 -657 268 l-80 51 0 259 0 259 220 0 220 0 0 -228 c0 -249 2
-257 60 -287 37 -19 64 -19 104 0 64 31 66 41 66 360 0 316 -2 328 -63 365
-30 19 -52 20 -319 20 l-288 0 0 188 c0 207 -4 222 -60 260 -59 40 -146 15
-178 -51 -14 -29 -19 -168 -21 -631 l-1 -269 -46 58 c-115 149 -223 357 -289
561 -101 306 -111 637 -30 960 76 302 197 525 403 745 278 297 634 487 1027
549 146 24 427 21 570 -5z"/>
<path d="M4994 7569 c-74 -28 -137 -88 -175 -165 -65 -131 -35 -289 73 -390
75 -70 125 -89 233 -88 72 0 99 4 136 23 71 34 122 83 160 153 32 59 34 69 34
158 0 84 -3 102 -28 152 -34 70 -101 131 -173 158 -73 27 -189 27 -260 -1z
m193 -243 c22 -19 28 -32 28 -66 0 -53 -38 -90 -91 -90 -47 0 -94 45 -94 90 0
22 9 41 29 61 38 37 88 39 128 5z"/>
<path d="M4855 6776 c-97 -31 -168 -83 -219 -160 -57 -86 -66 -139 -66 -391
l0 -220 -157 -3 c-87 -1 -171 -8 -186 -14 -34 -13 -57 -55 -57 -104 0 -28 8
-44 34 -70 l34 -34 386 0 386 0 0 -465 0 -465 110 0 110 0 0 465 0 465 380 0
c409 0 419 1 454 52 34 48 10 132 -43 159 -17 9 -82 15 -183 17 l-158 4 0 191
c0 106 -5 219 -10 252 -21 130 -109 248 -228 303 -56 27 -59 27 -302 29 -179
2 -256 -1 -285 -11z m512 -232 c15 -11 38 -36 51 -54 21 -32 22 -41 22 -256
l0 -224 -321 0 -320 0 3 229 c3 261 5 266 89 309 42 22 52 23 246 20 186 -3
204 -5 230 -24z"/>
<path d="M6131 6774 c-68 -18 -109 -43 -156 -95 -58 -65 -79 -121 -80 -214 0
-68 4 -89 28 -137 133 -272 528 -231 603 63 46 178 -70 354 -256 389 -65 12
-72 12 -139 -6z m144 -249 c56 -55 16 -145 -64 -145 -32 0 -44 6 -65 31 -53
62 -17 139 64 139 30 0 47 -6 65 -25z"/>
<path d="M3919 6764 c-60 -18 -142 -92 -177 -158 -23 -44 -27 -63 -27 -136 0
-73 4 -93 28 -142 96 -196 349 -243 514 -95 59 54 87 117 91 209 6 109 -16
167 -87 239 -92 91 -217 122 -342 83z m177 -238 c60 -51 20 -146 -61 -146 -21
0 -44 9 -61 24 -60 51 -20 146 61 146 21 0 44 -9 61 -24z"/>
</g>
</svg>
