<?xml version="1.0" encoding="UTF-8"?>
<svg version="1.1" xmlns="http://www.w3.org/2000/svg" width="1200" height="800">
<path d="M0 0 C396 0 792 0 1200 0 C1200 264 1200 528 1200 800 C804 800 408 800 0 800 C0 536 0 272 0 0 Z " fill="#DA251C" transform="translate(0,0)"/>
<path d="M0 0 C0.66 0 1.32 0 2 0 C4.40962941 7.337276 6.81793389 14.67498549 9.22462845 22.0132246 C10.342645 25.42202797 11.46108773 28.83069017 12.58056641 32.23901367 C13.66444585 35.5390094 14.74712491 38.83939687 15.8290329 42.14003944 C16.43520631 43.98833258 17.04256681 45.83623627 17.64996338 47.68412781 C19.4638496 53.22096961 21.24548552 58.76353228 22.94482422 64.33666992 C25.09231151 71.36202404 27.3805557 78.33775666 29.6842308 85.31305313 C30.45192722 87.63765487 31.21798174 89.96279252 31.9836731 92.28805542 C33.61270551 97.23416888 35.24372774 102.17962489 36.875 107.125 C49.14013951 144.30991836 49.14013951 144.30991836 52.7578125 155.6796875 C52.99756805 156.42791779 53.23732361 157.17614807 53.48434448 157.947052 C55 162.7576875 55 162.7576875 55 165 C112.42 165 169.84 165 229 165 C226.40206849 167.59793151 224.46312022 169.52362651 221.55859375 171.5234375 C220.9025415 171.97968506 220.24648926 172.43593262 219.57055664 172.90600586 C218.86664795 173.39077393 218.16273926 173.87554199 217.4375 174.375 C211.07803555 178.80756255 204.791255 183.32306063 198.5625 187.9375 C190.16504564 194.15274363 181.71277416 200.28757623 173.23388672 206.39111328 C169.48640216 209.09012128 165.74344155 211.79538884 162 214.5 C160.50002146 215.58336304 159.00002146 216.66669638 157.5 217.75 C156.38625 218.554375 156.38625 218.554375 155.25 219.375 C148.5 224.25 148.5 224.25 146.25024414 225.87475586 C144.7493445 226.95878416 143.24853078 228.04293142 141.74780273 229.12719727 C138.01226033 231.82587655 134.27527746 234.52251312 130.53515625 237.21484375 C116.92884149 247.01489517 103.39999123 256.91929352 90 267 C90.59250502 272.0747775 91.71326608 276.71793867 93.3449707 281.56494141 C93.58253082 282.28635315 93.82009094 283.00776489 94.06484985 283.7510376 C94.84633027 286.11973728 95.63604833 288.48560284 96.42578125 290.8515625 C96.97582914 292.51417043 97.52531407 294.1769647 98.07426453 295.8399353 C99.51925247 300.21286763 100.97105598 304.5835055 102.42456055 308.95361328 C104.7416218 315.92454654 107.04737931 322.89923055 109.35487938 329.87333298 C110.15513382 332.28922975 110.95771588 334.70434196 111.76081848 337.11929321 C114.25730066 344.63772004 116.68328705 352.16751763 118.99000549 359.74685669 C120.75206912 365.42237814 122.64509999 371.05456281 124.52779579 376.69092178 C125.76413095 380.39633276 126.99161308 384.10468092 128.22070312 387.8125 C129.77419999 392.49739917 131.33037255 397.18136081 132.89575195 401.86230469 C134.17245429 405.68078901 135.44047013 409.50205904 136.70262718 413.3253746 C137.18307437 414.77533692 137.66673897 416.22423726 138.1536808 417.6720314 C138.8298797 419.68383329 139.49493879 421.6989954 140.1574707 423.71533203 C140.53845413 424.85970734 140.91943756 426.00408264 141.31196594 427.18313599 C142 430 142 430 141 433 C140.22398437 432.39414062 139.44796875 431.78828125 138.6484375 431.1640625 C131.20497171 425.37988631 123.62910368 419.82754206 115.93798828 414.37890625 C112.3615568 411.83422434 108.80663078 409.25974716 105.25 406.6875 C103.71224208 405.57551738 102.17448164 404.46353824 100.63671875 403.3515625 C99.8689209 402.79629883 99.10112305 402.24103516 98.31005859 401.66894531 C96.04819171 400.03481701 93.78423692 398.4036287 91.51953125 396.7734375 C83.73015904 391.16351935 75.9702303 385.51727878 68.25 379.8125 C61.73131921 374.99605784 55.1755172 370.23977065 48.5703125 365.54296875 C37.08213363 357.37179927 25.68663158 349.0737849 14.3684082 340.66894531 C12.90620072 339.58615641 11.43927108 338.50970337 9.96679688 337.44091797 C8.72601127 336.53189158 7.50062089 335.60109872 6.29882812 334.64111328 C4.63386451 333.30712587 4.63386451 333.30712587 2 332 C-3.10985685 332.7788894 -7.64126823 337.25413461 -11.6875 340.3125 C-13.39786814 341.58930472 -15.10881941 342.86532862 -16.8203125 344.140625 C-17.6855957 344.78708984 -18.55087891 345.43355469 -19.44238281 346.09960938 C-23.28904876 348.95780408 -27.17279205 351.76330022 -31.0625 354.5625 C-32.16887817 355.35974487 -32.16887817 355.35974487 -33.29760742 356.1730957 C-34.78689528 357.24606545 -36.2763966 358.31873899 -37.76611328 359.39111328 C-41.51359784 362.09012128 -45.25655845 364.79538884 -49 367.5 C-50.49997854 368.58336304 -51.99997854 369.66669638 -53.5 370.75 C-54.61375 371.554375 -54.61375 371.554375 -55.75 372.375 C-62.5 377.25 -62.5 377.25 -64.74975586 378.87475586 C-66.2506555 379.95878416 -67.75146922 381.04293142 -69.25219727 382.12719727 C-72.98773967 384.82587655 -76.72472254 387.52251312 -80.46484375 390.21484375 C-88.17463219 395.76804801 -95.85744391 401.35454867 -103.5 407 C-109.85591709 411.69318773 -116.22599758 416.36568475 -122.625 421 C-123.68944336 421.7734375 -123.68944336 421.7734375 -124.77539062 422.5625 C-129.76774238 426.16939195 -134.85490765 429.61495237 -140 433 C-138.53959963 425.56523447 -136.24141842 418.62564347 -133.6875 411.5 C-131.21807865 404.60076488 -128.88131709 397.70623291 -126.86328125 390.66015625 C-123.04408752 377.37366813 -118.56816739 364.28326031 -114.23304749 351.15835953 C-112.99773875 347.41583639 -111.76596653 343.6721503 -110.53417969 339.9284668 C-110.03997975 338.4265894 -109.5457781 336.92471257 -109.05157471 335.4228363 C-108.68629543 334.31272595 -108.68629543 334.31272595 -108.31363678 333.18018913 C-107.58098189 330.95399324 -106.84801206 328.7279013 -106.1149292 326.50184631 C-102.41821619 315.27623075 -98.72746377 304.04870546 -95.06518555 292.8117981 C-94.52801108 291.16486123 -93.98978757 289.5182661 -93.45043945 287.87203979 C-92.71952807 285.64080457 -91.9920775 283.40847151 -91.265625 281.17578125 C-90.87149414 279.96833252 -90.47736328 278.76088379 -90.07128906 277.5168457 C-88.9087601 273.70047612 -87.93713635 269.87728171 -87 266 C-87.70640625 265.76023437 -88.4128125 265.52046875 -89.140625 265.2734375 C-92.46991336 263.79072165 -94.90415518 261.90315039 -97.75 259.625 C-102.76794293 255.66918591 -107.8856141 251.90706585 -113.125 248.25 C-119.29223696 243.93663628 -125.38842384 239.54011457 -131.4375 235.0625 C-139.83522642 228.84761924 -148.28722062 222.71242753 -156.76611328 216.60888672 C-160.51359784 213.90987872 -164.25655845 211.20461116 -168 208.5 C-169.49997854 207.41663696 -170.99997854 206.33330362 -172.5 205.25 C-181.5 198.75 -181.5 198.75 -183.75097656 197.12426758 C-185.24768701 196.04332809 -186.74443168 194.96243599 -188.24121094 193.8815918 C-192.04182637 191.1370246 -195.84180298 188.39158034 -199.640625 185.64453125 C-200.4052002 185.0918457 -201.16977539 184.53916016 -201.95751953 183.96972656 C-203.46915863 182.87696765 -204.98055743 181.78387622 -206.49169922 180.69042969 C-210.06347045 178.10875059 -213.6427984 175.53915864 -217.2421875 172.99609375 C-217.89928711 172.53098389 -218.55638672 172.06587402 -219.23339844 171.58666992 C-220.46636152 170.71541632 -221.70129877 169.84694775 -222.93847656 168.98168945 C-224.30990745 168.01220846 -225.65795608 167.00976938 -227 166 C-227 165.67 -227 165.34 -227 165 C-169.58 165 -112.16 165 -53 165 C-52.01 161.37 -51.02 157.74 -50 154 C-48.94846241 150.64100851 -47.88028403 147.29483313 -46.77734375 143.953125 C-46.32551727 142.57269768 -46.32551727 142.57269768 -45.86456299 141.16438293 C-44.89125506 138.19213596 -43.91434268 135.22108691 -42.9375 132.25 C-41.90837692 129.1095702 -40.88026228 125.96881148 -39.85224915 122.82801819 C-39.1712935 120.74763207 -38.49005111 118.66733978 -37.80851746 116.58714294 C-35.24286114 108.75360995 -32.70669564 100.91110709 -30.1875 93.0625 C-24.7005992 75.98855576 -19.0998383 58.95169454 -13.5065918 41.91235352 C-8.9314 27.96433213 -4.4201992 13.99794591 0 0 Z " fill="#FEFE00" transform="translate(599,161)"/>
</svg>
